<svg version="1.1" viewBox="0.0 0.0 960.0 384.0" fill="none" stroke="none" stroke-linecap="square" stroke-miterlimit="10" xmlns:xlink="http://www.w3.org/1999/xlink" xmlns="http://www.w3.org/2000/svg"><clipPath id="g2ae73f490b8_1_712.0"><path d="m0 0l960.0 0l0 384.0l-960.0 0l0 -384.0z" clip-rule="nonzero"/></clipPath><g clip-path="url(#g2ae73f490b8_1_712.0)"><path fill="#ffffff" d="m0 0l960.0 0l0 384.0l-960.0 0z" fill-rule="evenodd"/><path fill="#000000" fill-opacity="0.0" d="m538.1999 172.34874l0 0c0 -4.6097107 3.7369385 -8.346619 8.346619 -8.346619l172.18866 0c2.213684 0 4.33667 0.879364 5.9019775 2.4446564c1.5652466 1.5653076 2.444641 3.6882935 2.444641 5.9019623l0 33.385498c0 4.6097107 -3.7368774 8.346619 -8.346619 8.346619l-172.18866 0c-4.60968 0 -8.346619 -3.736908 -8.346619 -8.346619z" fill-rule="evenodd"/><path stroke="#741b47" stroke-width="1.0" stroke-linejoin="round" stroke-linecap="butt" d="m538.1999 172.34874l0 0c0 -4.6097107 3.7369385 -8.346619 8.346619 -8.346619l172.18866 0c2.213684 0 4.33667 0.879364 5.9019775 2.4446564c1.5652466 1.5653076 2.444641 3.6882935 2.444641 5.9019623l0 33.385498c0 4.6097107 -3.7368774 8.346619 -8.346619 8.346619l-172.18866 0c-4.60968 0 -8.346619 -3.736908 -8.346619 -8.346619z" fill-rule="evenodd"/><path fill="#741b47" d="m570.7481 195.96149l-2.5625 0l0 -4.9375q0 -1.5625 -0.171875 -2.015625q-0.15625 -0.46875 -0.53125 -0.71875q-0.359375 -0.265625 -0.875 -0.265625q-0.671875 0 -1.203125 0.375q-0.53125 0.359375 -0.734375 0.96875q-0.1875 0.59375 -0.1875 2.21875l0 4.375l-2.546875 0l0 -9.671875l2.375 0l0 1.421875q1.265625 -1.640625 3.1875 -1.640625q0.84375 0 1.546875 0.3125q0.703125 0.296875 1.0625 0.78125q0.359375 0.46875 0.5 1.078125q0.140625 0.59375 0.140625 1.703125l0 6.015625zm2.005371 -4.96875q0 -1.28125 0.625 -2.46875q0.625 -1.203125 1.78125 -1.828125q1.15625 -0.625 2.578125 -0.625q2.1875 0 3.59375 1.421875q1.40625 1.421875 1.40625 3.609375q0 2.1875 -1.421875 3.640625q-1.421875 1.4375 -3.5625 1.4375q-1.328125 0 -2.546875 -0.59375q-1.203125 -0.609375 -1.828125 -1.765625q-0.625 -1.171875 -0.625 -2.828125zm2.625 0.125q0 1.453125 0.671875 2.21875q0.6875 0.75 1.6875 0.75q1.0 0 1.671875 -0.75q0.6875 -0.765625 0.6875 -2.234375q0 -1.421875 -0.6875 -2.1875q-0.671875 -0.765625 -1.671875 -0.765625q-1.0 0 -1.6875 0.765625q-0.671875 0.765625 -0.671875 2.203125zm18.161621 4.84375l-2.5625 0l0 -4.9375q0 -1.5625 -0.171875 -2.015625q-0.15625 -0.46875 -0.53125 -0.71875q-0.359375 -0.265625 -0.875 -0.265625q-0.671875 0 -1.203125 0.375q-0.53125 0.359375 -0.734375 0.96875q-0.1875 0.59375 -0.1875 2.21875l0 4.375l-2.546875 0l0 -9.671875l2.375 0l0 1.421875q1.265625 -1.640625 3.1875 -1.640625q0.84375 0 1.546875 0.3125q0.703125 0.296875 1.0625 0.78125q0.359375 0.46875 0.5 1.078125q0.140625 0.59375 0.140625 1.703125l0 6.015625zm2.302246 -3.5625l0 -2.5625l5.03125 0l0 2.5625l-5.03125 0zm15.3845215 3.5625l-2.390625 0l0 -1.421875q-0.59375 0.828125 -1.40625 1.234375q-0.796875 0.40625 -1.609375 0.40625q-1.671875 0 -2.859375 -1.34375q-1.1875 -1.34375 -1.1875 -3.75q0 -2.453125 1.15625 -3.734375q1.15625 -1.28125 2.921875 -1.28125q1.625 0 2.8125 1.34375l0 -4.8125l2.5625 0l0 13.359375zm-6.84375 -5.046875q0 1.546875 0.4375 2.234375q0.609375 1.015625 1.71875 1.015625q0.890625 0 1.5 -0.75q0.625 -0.765625 0.625 -2.25q0 -1.671875 -0.609375 -2.40625q-0.59375 -0.734375 -1.53125 -0.734375q-0.90625 0 -1.53125 0.734375q-0.609375 0.71875 -0.609375 2.15625zm15.724121 5.046875l0 -1.453125q-0.53125 0.78125 -1.390625 1.234375q-0.859375 0.4375 -1.8125 0.4375q-0.96875 0 -1.75 -0.421875q-0.765625 -0.4375 -1.125 -1.203125q-0.34375 -0.78125 -0.34375 -2.140625l0 -6.125l2.5625 0l0 4.4375q0 2.046875 0.140625 2.515625q0.140625 0.453125 0.515625 0.71875q0.375 0.265625 0.953125 0.265625q0.65625 0 1.171875 -0.359375q0.515625 -0.359375 0.703125 -0.890625q0.203125 -0.53125 0.203125 -2.609375l0 -4.078125l2.546875 0l0 9.671875l-2.375 0zm6.942871 -6.71875l-2.328125 -0.421875q0.40625 -1.40625 1.359375 -2.078125q0.953125 -0.671875 2.84375 -0.671875q1.703125 0 2.546875 0.40625q0.84375 0.40625 1.171875 1.03125q0.34375 0.625 0.34375 2.28125l-0.015625 3.0q0 1.265625 0.109375 1.875q0.125 0.609375 0.46875 1.296875l-2.53125 0q-0.109375 -0.25 -0.25 -0.75q-0.0625 -0.234375 -0.09375 -0.3125q-0.65625 0.640625 -1.40625 0.96875q-0.734375 0.3125 -1.59375 0.3125q-1.484375 0 -2.34375 -0.8125q-0.859375 -0.8125 -0.859375 -2.046875q0 -0.828125 0.390625 -1.46875q0.390625 -0.640625 1.09375 -0.96875q0.703125 -0.34375 2.03125 -0.609375q1.796875 -0.328125 2.484375 -0.625l0 -0.25q0 -0.75 -0.359375 -1.0625q-0.359375 -0.3125 -1.375 -0.3125q-0.6875 0 -1.078125 0.28125q-0.375 0.265625 -0.609375 0.9375zm3.421875 2.078125q-0.484375 0.15625 -1.5625 0.390625q-1.0625 0.21875 -1.390625 0.4375q-0.5 0.359375 -0.5 0.90625q0 0.53125 0.40625 0.9375q0.40625 0.390625 1.015625 0.390625q0.703125 0 1.328125 -0.46875q0.46875 -0.34375 0.609375 -0.84375q0.09375 -0.328125 0.09375 -1.25l0 -0.5zm5.0475464 4.640625l0 -13.359375l2.5625 0l0 13.359375l-2.5625 0zm4.8864746 -3.5625l0 -2.5625l5.03125 0l0 2.5625l-5.03125 0zm6.4313965 -6.109375l2.390625 0l0 1.421875q0.46875 -0.734375 1.25 -1.1875q0.796875 -0.453125 1.765625 -0.453125q1.6875 0 2.859375 1.328125q1.171875 1.3125 1.171875 3.671875q0 2.421875 -1.1875 3.765625q-1.1875 1.34375 -2.859375 1.34375q-0.8125 0 -1.46875 -0.3125q-0.640625 -0.328125 -1.359375 -1.09375l0 4.875l-2.5625 0l0 -13.359375zm2.53125 4.671875q0 1.625 0.640625 2.40625q0.65625 0.78125 1.578125 0.78125q0.90625 0 1.484375 -0.71875q0.59375 -0.71875 0.59375 -2.34375q0 -1.515625 -0.609375 -2.25q-0.609375 -0.75 -1.515625 -0.75q-0.9375 0 -1.5625 0.734375q-0.609375 0.71875 -0.609375 2.140625zm10.849121 -1.71875l-2.328125 -0.421875q0.40625 -1.40625 1.359375 -2.078125q0.953125 -0.671875 2.84375 -0.671875q1.703125 0 2.546875 0.40625q0.84375 0.40625 1.171875 1.03125q0.34375 0.625 0.34375 2.28125l-0.015625 3.0q0 1.265625 0.109375 1.875q0.125 0.609375 0.46875 1.296875l-2.53125 0q-0.109375 -0.25 -0.25 -0.75q-0.0625 -0.234375 -0.09375 -0.3125q-0.65625 0.640625 -1.40625 0.96875q-0.734375 0.3125 -1.59375 0.3125q-1.484375 0 -2.34375 -0.8125q-0.859375 -0.8125 -0.859375 -2.046875q0 -0.828125 0.390625 -1.46875q0.390625 -0.640625 1.09375 -0.96875q0.703125 -0.34375 2.03125 -0.609375q1.796875 -0.328125 2.484375 -0.625l0 -0.25q0 -0.75 -0.359375 -1.0625q-0.359375 -0.3125 -1.375 -0.3125q-0.6875 0 -1.078125 0.28125q-0.375 0.265625 -0.609375 0.9375zm3.421875 2.078125q-0.484375 0.15625 -1.5625 0.390625q-1.0625 0.21875 -1.390625 0.4375q-0.5 0.359375 -0.5 0.90625q0 0.53125 0.40625 0.9375q0.40625 0.390625 1.015625 0.390625q0.703125 0 1.328125 -0.46875q0.46875 -0.34375 0.609375 -0.84375q0.09375 -0.328125 0.09375 -1.25l0 -0.5zm11.406982 4.640625l0 -1.453125q-0.53125 0.78125 -1.390625 1.234375q-0.859375 0.4375 -1.8125 0.4375q-0.96875 0 -1.75 -0.421875q-0.765625 -0.4375 -1.125 -1.203125q-0.34375 -0.78125 -0.34375 -2.140625l0 -6.125l2.5625 0l0 4.4375q0 2.046875 0.140625 2.515625q0.140625 0.453125 0.515625 0.71875q0.375 0.265625 0.953125 0.265625q0.65625 0 1.171875 -0.359375q0.515625 -0.359375 0.703125 -0.890625q0.203125 -0.53125 0.203125 -2.609375l0 -4.078125l2.546875 0l0 9.671875l-2.375 0zm13.47406 -6.8125l-2.53125 0.453125q-0.125 -0.75 -0.578125 -1.125q-0.453125 -0.390625 -1.171875 -0.390625q-0.953125 0 -1.53125 0.65625q-0.5625 0.65625 -0.5625 2.203125q0 1.734375 0.578125 2.4375q0.578125 0.703125 1.546875 0.703125q0.734375 0 1.203125 -0.40625q0.46875 -0.421875 0.65625 -1.421875l2.515625 0.421875q-0.390625 1.734375 -1.515625 2.625q-1.109375 0.875 -2.96875 0.875q-2.125 0 -3.390625 -1.328125q-1.25 -1.34375 -1.25 -3.71875q0 -2.390625 1.265625 -3.71875q1.265625 -1.34375 3.421875 -1.34375q1.765625 0 2.796875 0.765625q1.046875 0.75 1.515625 2.3125zm3.8444824 0.09375l-2.328125 -0.421875q0.40625 -1.40625 1.359375 -2.078125q0.953125 -0.671875 2.84375 -0.671875q1.703125 0 2.546875 0.40625q0.84375 0.40625 1.171875 1.03125q0.34375 0.625 0.34375 2.28125l-0.015625 3.0q0 1.265625 0.109375 1.875q0.125 0.609375 0.46875 1.296875l-2.53125 0q-0.109375 -0.25 -0.25 -0.75q-0.0625 -0.234375 -0.09375 -0.3125q-0.65625 0.640625 -1.40625 0.96875q-0.734375 0.3125 -1.59375 0.3125q-1.484375 0 -2.34375 -0.8125q-0.859375 -0.8125 -0.859375 -2.046875q0 -0.828125 0.390625 -1.46875q0.390625 -0.640625 1.09375 -0.96875q0.703125 -0.34375 2.03125 -0.609375q1.796875 -0.328125 2.484375 -0.625l0 -0.25q0 -0.75 -0.359375 -1.0625q-0.359375 -0.3125 -1.375 -0.3125q-0.6875 0 -1.078125 0.28125q-0.375 0.265625 -0.609375 0.9375zm3.421875 2.078125q-0.484375 0.15625 -1.5625 0.390625q-1.0625 0.21875 -1.390625 0.4375q-0.5 0.359375 -0.5 0.90625q0 0.53125 0.40625 0.9375q0.40625 0.390625 1.015625 0.390625q0.703125 0 1.328125 -0.46875q0.46875 -0.34375 0.609375 -0.84375q0.09375 -0.328125 0.09375 -1.25l0 -0.5zm5.0476074 4.640625l0 -13.359375l2.5625 0l0 13.359375l-2.5625 0z" fill-rule="nonzero"/><path fill="#000000" fill-opacity="0.0" d="m199.96692 175.54028l0 0c0 -3.7283478 3.0224304 -6.750778 6.7507935 -6.750778l138.93936 0c1.7904358 0 3.5075073 0.7112427 4.773529 1.9772491c1.2660217 1.2660217 1.9772644 2.9831085 1.9772644 4.773529l0 27.002365c0 3.7283478 -3.0224304 6.7507935 -6.7507935 6.7507935l-138.93936 0c-3.728363 0 -6.7507935 -3.0224457 -6.7507935 -6.7507935z" fill-rule="evenodd"/><path stroke="#674ea7" stroke-width="1.0" stroke-linejoin="round" stroke-linecap="butt" d="m199.96692 175.54028l0 0c0 -3.7283478 3.0224304 -6.750778 6.7507935 -6.750778l138.93936 0c1.7904358 0 3.5075073 0.7112427 4.773529 1.9772491c1.2660217 1.2660217 1.9772644 2.9831085 1.9772644 4.773529l0 27.002365c0 3.7283478 -3.0224304 6.7507935 -6.7507935 6.7507935l-138.93936 0c-3.728363 0 -6.7507935 -3.0224457 -6.7507935 -6.7507935z" fill-rule="evenodd"/><path fill="#351c75" d="m229.84457 195.96147l-2.5625 0l0 -4.9375q0 -1.5625 -0.171875 -2.015625q-0.15625 -0.46875 -0.53125 -0.71875q-0.359375 -0.265625 -0.875 -0.265625q-0.671875 0 -1.203125 0.375q-0.53125 0.359375 -0.734375 0.96875q-0.1875 0.59375 -0.1875 2.21875l0 4.375l-2.546875 0l0 -9.671875l2.375 0l0 1.421875q1.265625 -1.640625 3.1875 -1.640625q0.84375 0 1.546875 0.3125q0.703125 0.296875 1.0625 0.78125q0.359375 0.46875 0.5 1.078125q0.140625 0.59375 0.140625 1.703125l0 6.015625zm2.0053558 -4.96875q0 -1.28125 0.625 -2.46875q0.625 -1.203125 1.78125 -1.828125q1.15625 -0.625 2.578125 -0.625q2.1875 0 3.59375 1.421875q1.40625 1.421875 1.40625 3.609375q0 2.1875 -1.421875 3.640625q-1.421875 1.4375 -3.5625 1.4375q-1.328125 0 -2.546875 -0.59375q-1.203125 -0.609375 -1.828125 -1.765625q-0.625 -1.171875 -0.625 -2.828125zm2.625 0.125q0 1.453125 0.671875 2.21875q0.6875 0.75 1.6875 0.75q1.0 0 1.671875 -0.75q0.6875 -0.765625 0.6875 -2.234375q0 -1.421875 -0.6875 -2.1875q-0.671875 -0.765625 -1.671875 -0.765625q-1.0 0 -1.6875 0.765625q-0.671875 0.765625 -0.671875 2.203125zm18.161606 4.84375l-2.5625 0l0 -4.9375q0 -1.5625 -0.171875 -2.015625q-0.15625 -0.46875 -0.53125 -0.71875q-0.359375 -0.265625 -0.875 -0.265625q-0.671875 0 -1.203125 0.375q-0.53125 0.359375 -0.734375 0.96875q-0.1875 0.59375 -0.1875 2.21875l0 4.375l-2.546875 0l0 -9.671875l2.375 0l0 1.421875q1.265625 -1.640625 3.1875 -1.640625q0.84375 0 1.546875 0.3125q0.703125 0.296875 1.0625 0.78125q0.359375 0.46875 0.5 1.078125q0.140625 0.59375 0.140625 1.703125l0 6.015625zm2.3022308 -3.5625l0 -2.5625l5.0312653 0l0 2.5625l-5.0312653 0zm5.6033173 0.796875l2.5625 -0.390625q0.171875 0.75 0.671875 1.140625q0.5 0.390625 1.40625 0.390625q0.984375 0 1.484375 -0.375q0.34375 -0.25 0.34375 -0.671875q0 -0.296875 -0.1875 -0.484375q-0.1875 -0.1875 -0.859375 -0.34375q-3.09375 -0.6875 -3.921875 -1.25q-1.140625 -0.78125 -1.140625 -2.171875q0 -1.265625 0.984375 -2.109375q1.0 -0.859375 3.078125 -0.859375q1.984375 0 2.953125 0.65625q0.96875 0.640625 1.328125 1.90625l-2.40625 0.4375q-0.15625 -0.5625 -0.59375 -0.859375q-0.421875 -0.296875 -1.234375 -0.296875q-1.0 0 -1.4375 0.28125q-0.296875 0.203125 -0.296875 0.515625q0 0.265625 0.25 0.46875q0.34375 0.25 2.390625 0.71875q2.046875 0.453125 2.859375 1.140625q0.796875 0.671875 0.796875 1.890625q0 1.34375 -1.109375 2.296875q-1.109375 0.953125 -3.28125 0.953125q-1.984375 0 -3.140625 -0.796875q-1.140625 -0.8125 -1.5 -2.1875zm11.281952 -8.21875l0 -2.375l2.5625 0l0 2.375l-2.5625 0zm0 10.984375l0 -9.671875l2.5625 0l0 9.671875l-2.5625 0zm13.980194 0l-2.5625 0l0 -4.9375q0 -1.5625 -0.171875 -2.015625q-0.15625 -0.46875 -0.53125 -0.71875q-0.359375 -0.265625 -0.875 -0.265625q-0.671875 0 -1.203125 0.375q-0.53125 0.359375 -0.734375 0.96875q-0.1875 0.59375 -0.1875 2.21875l0 4.375l-2.546875 0l0 -9.671875l2.375 0l0 1.421875q1.265625 -1.640625 3.1875 -1.640625q0.84375 0 1.546875 0.3125q0.703125 0.296875 1.0625 0.78125q0.359375 0.46875 0.5 1.078125q0.140625 0.59375 0.140625 1.703125l0 6.015625zm2.3647156 0.640625l2.921875 0.359375q0.0625 0.5 0.328125 0.6875q0.375 0.28125 1.15625 0.28125q1.0 0 1.5 -0.296875q0.328125 -0.203125 0.515625 -0.65625q0.109375 -0.3125 0.109375 -1.171875l0 -1.40625q-1.140625 1.5625 -2.890625 1.5625q-1.953125 0 -3.09375 -1.65625q-0.890625 -1.296875 -0.890625 -3.234375q0 -2.4375 1.171875 -3.71875q1.171875 -1.28125 2.90625 -1.28125q1.796875 0 2.96875 1.578125l0 -1.359375l2.390625 0l0 8.671875q0 1.71875 -0.28125 2.5625q-0.28125 0.84375 -0.796875 1.328125q-0.5 0.484375 -1.359375 0.75q-0.84375 0.28125 -2.15625 0.28125q-2.453125 0 -3.484375 -0.84375q-1.03125 -0.84375 -1.03125 -2.125q0 -0.140625 0.015625 -0.3125zm2.28125 -5.671875q0 1.53125 0.59375 2.25q0.59375 0.71875 1.46875 0.71875q0.9375 0 1.578125 -0.734375q0.65625 -0.734375 0.65625 -2.171875q0 -1.515625 -0.625 -2.234375q-0.609375 -0.734375 -1.5625 -0.734375q-0.921875 0 -1.515625 0.71875q-0.59375 0.71875 -0.59375 2.1875zm15.708496 5.03125l0 -1.453125q-0.53125 0.78125 -1.390625 1.234375q-0.859375 0.4375 -1.8125 0.4375q-0.96875 0 -1.75 -0.421875q-0.765625 -0.4375 -1.125 -1.203125q-0.34375 -0.78125 -0.34375 -2.140625l0 -6.125l2.5625 0l0 4.4375q0 2.046875 0.140625 2.515625q0.140625 0.453125 0.515625 0.71875q0.375 0.265625 0.953125 0.265625q0.65625 0 1.171875 -0.359375q0.515625 -0.359375 0.703125 -0.890625q0.203125 -0.53125 0.203125 -2.609375l0 -4.078125l2.546875 0l0 9.671875l-2.375 0zm5.0365906 0l0 -13.359375l2.5625 0l0 13.359375l-2.5625 0zm7.089569 -6.71875l-2.328125 -0.421875q0.40625 -1.40625 1.359375 -2.078125q0.953125 -0.671875 2.84375 -0.671875q1.703125 0 2.546875 0.40625q0.84375 0.40625 1.171875 1.03125q0.34375 0.625 0.34375 2.28125l-0.015625 3.0q0 1.265625 0.109375 1.875q0.125 0.609375 0.46875 1.296875l-2.53125 0q-0.109375 -0.25 -0.25 -0.75q-0.0625 -0.234375 -0.09375 -0.3125q-0.65625 0.640625 -1.40625 0.96875q-0.734375 0.3125 -1.59375 0.3125q-1.484375 0 -2.34375 -0.8125q-0.859375 -0.8125 -0.859375 -2.046875q0 -0.828125 0.390625 -1.46875q0.390625 -0.640625 1.09375 -0.96875q0.703125 -0.34375 2.03125 -0.609375q1.796875 -0.328125 2.484375 -0.625l0 -0.25q0 -0.75 -0.359375 -1.0625q-0.359375 -0.3125 -1.375 -0.3125q-0.6875 0 -1.078125 0.28125q-0.375 0.265625 -0.609375 0.9375zm3.421875 2.078125q-0.484375 0.15625 -1.5625 0.390625q-1.0625 0.21875 -1.390625 0.4375q-0.5 0.359375 -0.5 0.90625q0 0.53125 0.40625 0.9375q0.40625 0.390625 1.015625 0.390625q0.703125 0 1.328125 -0.46875q0.46875 -0.34375 0.609375 -0.84375q0.09375 -0.328125 0.09375 -1.25l0 -0.5zm7.500702 4.640625l-2.5625 0l0 -9.671875l2.375 0l0 1.375q0.609375 -0.984375 1.09375 -1.28125q0.484375 -0.3125 1.109375 -0.3125q0.875 0 1.6875 0.484375l-0.796875 2.234375q-0.640625 -0.421875 -1.203125 -0.421875q-0.53125 0 -0.90625 0.296875q-0.375 0.296875 -0.59375 1.078125q-0.203125 0.765625 -0.203125 3.234375l0 2.984375z" fill-rule="nonzero"/><path fill="#000000" fill-opacity="0.0" d="m397.0243 108.61716l0 0c0 -1.8731995 1.5185242 -3.3917236 3.3917236 -3.3917236l88.83859 0c0.89953613 0 1.7622375 0.35733795 2.3983154 0.9934082c0.6360779 0.6360779 0.9934082 1.4987717 0.9934082 2.3983154l0 26.129944c0 1.8731842 -1.5185242 3.3917236 -3.3917236 3.3917236l-88.83859 0c-1.8731995 0 -3.3917236 -1.5185394 -3.3917236 -3.3917236z" fill-rule="evenodd"/><path stroke="#85200c" stroke-width="1.0" stroke-linejoin="round" stroke-linecap="butt" d="m397.0243 108.61716l0 0c0 -1.8731995 1.5185242 -3.3917236 3.3917236 -3.3917236l88.83859 0c0.89953613 0 1.7622375 0.35733795 2.3983154 0.9934082c0.6360779 0.6360779 0.9934082 1.4987717 0.9934082 2.3983154l0 26.129944c0 1.8731842 -1.5185242 3.3917236 -3.3917236 3.3917236l-88.83859 0c-1.8731995 0 -3.3917236 -1.5185394 -3.3917236 -3.3917236z" fill-rule="evenodd"/><path fill="#85200c" d="m419.7495 118.93025l2.390625 0l0 1.421875q0.46875 -0.734375 1.25 -1.1875q0.796875 -0.453125 1.765625 -0.453125q1.6875 0 2.859375 1.328125q1.171875 1.3125 1.171875 3.671875q0 2.421875 -1.1875 3.765625q-1.1875 1.34375 -2.859375 1.34375q-0.8125 0 -1.46875 -0.3125q-0.640625 -0.328125 -1.359375 -1.09375l0 4.875l-2.5625 0l0 -13.359375zm2.53125 4.671875q0 1.625 0.640625 2.40625q0.65625 0.78125 1.578125 0.78125q0.90625 0 1.484375 -0.71875q0.59375 -0.71875 0.59375 -2.34375q0 -1.515625 -0.609375 -2.25q-0.609375 -0.75 -1.515625 -0.75q-0.9375 0 -1.5625 0.734375q-0.609375 0.71875 -0.609375 2.140625zm10.849121 -1.71875l-2.328125 -0.421875q0.40625 -1.40625 1.359375 -2.078125q0.953125 -0.671875 2.84375 -0.671875q1.703125 0 2.546875 0.40625q0.84375 0.40625 1.171875 1.03125q0.34375 0.625 0.34375 2.28125l-0.015625 3.0q0 1.265625 0.109375 1.875q0.125 0.609375 0.46875 1.296875l-2.53125 0q-0.109375 -0.25 -0.25 -0.75q-0.0625 -0.234375 -0.09375 -0.3125q-0.65625 0.640625 -1.40625 0.96875q-0.734375 0.3125 -1.59375 0.3125q-1.484375 0 -2.34375 -0.8125q-0.859375 -0.8125 -0.859375 -2.046875q0 -0.828125 0.390625 -1.46875q0.390625 -0.640625 1.09375 -0.96875q0.703125 -0.34375 2.03125 -0.609375q1.796875 -0.328125 2.484375 -0.625l0 -0.25q0 -0.75 -0.359375 -1.0625q-0.359375 -0.3125 -1.375 -0.3125q-0.6875 0 -1.078125 0.28125q-0.375 0.265625 -0.609375 0.9375zm3.421875 2.078125q-0.484375 0.15625 -1.5625 0.390625q-1.0625 0.21875 -1.390625 0.4375q-0.5 0.359375 -0.5 0.90625q0 0.53125 0.40625 0.9375q0.40625 0.390625 1.015625 0.390625q0.703125 0 1.328125 -0.46875q0.46875 -0.34375 0.609375 -0.84375q0.09375 -0.328125 0.09375 -1.25l0 -0.5zm11.406952 4.640625l0 -1.453125q-0.53125 0.78125 -1.390625 1.234375q-0.859375 0.4375 -1.8125 0.4375q-0.96875 0 -1.75 -0.421875q-0.765625 -0.4375 -1.125 -1.203125q-0.34375 -0.78125 -0.34375 -2.140625l0 -6.125l2.5625 0l0 4.4375q0 2.046875 0.140625 2.515625q0.140625 0.453125 0.515625 0.71875q0.375 0.265625 0.953125 0.265625q0.65625 0 1.171875 -0.359375q0.515625 -0.359375 0.703125 -0.890625q0.203125 -0.53125 0.203125 -2.609375l0 -4.078125l2.546875 0l0 9.671875l-2.375 0zm13.474121 -6.8125l-2.53125 0.453125q-0.125 -0.75 -0.578125 -1.125q-0.453125 -0.390625 -1.171875 -0.390625q-0.953125 0 -1.53125 0.65625q-0.5625 0.65625 -0.5625 2.203125q0 1.734375 0.578125 2.4375q0.578125 0.703125 1.546875 0.703125q0.734375 0 1.203125 -0.40625q0.46875 -0.421875 0.65625 -1.421875l2.515625 0.421875q-0.390625 1.734375 -1.515625 2.625q-1.109375 0.875 -2.96875 0.875q-2.125 0 -3.390625 -1.328125q-1.25 -1.34375 -1.25 -3.71875q0 -2.390625 1.265625 -3.71875q1.265625 -1.34375 3.421875 -1.34375q1.765625 0 2.796875 0.765625q1.046875 0.75 1.515625 2.3125zm3.8444824 0.09375l-2.328125 -0.421875q0.40625 -1.40625 1.359375 -2.078125q0.953125 -0.671875 2.84375 -0.671875q1.703125 0 2.546875 0.40625q0.84375 0.40625 1.171875 1.03125q0.34375 0.625 0.34375 2.28125l-0.015625 3.0q0 1.265625 0.109375 1.875q0.125 0.609375 0.46875 1.296875l-2.53125 0q-0.109375 -0.25 -0.25 -0.75q-0.0625 -0.234375 -0.09375 -0.3125q-0.65625 0.640625 -1.40625 0.96875q-0.734375 0.3125 -1.59375 0.3125q-1.484375 0 -2.34375 -0.8125q-0.859375 -0.8125 -0.859375 -2.046875q0 -0.828125 0.390625 -1.46875q0.390625 -0.640625 1.09375 -0.96875q0.703125 -0.34375 2.03125 -0.609375q1.796875 -0.328125 2.484375 -0.625l0 -0.25q0 -0.75 -0.359375 -1.0625q-0.359375 -0.3125 -1.375 -0.3125q-0.6875 0 -1.078125 0.28125q-0.375 0.265625 -0.609375 0.9375zm3.421875 2.078125q-0.484375 0.15625 -1.5625 0.390625q-1.0625 0.21875 -1.390625 0.4375q-0.5 0.359375 -0.5 0.90625q0 0.53125 0.40625 0.9375q0.40625 0.390625 1.015625 0.390625q0.703125 0 1.328125 -0.46875q0.46875 -0.34375 0.609375 -0.84375q0.09375 -0.328125 0.09375 -1.25l0 -0.5zm5.047577 4.640625l0 -13.359375l2.5625 0l0 13.359375l-2.5625 0z" fill-rule="nonzero"/><path fill="#000000" fill-opacity="0.0" d="m352.40787 189.04147l44.629913 -67.37009" fill-rule="evenodd"/><path stroke="#85200c" stroke-width="1.0" stroke-linejoin="round" stroke-linecap="butt" d="m352.40784 189.04146l41.316315 -62.368088" fill-rule="evenodd"/><path fill="#85200c" stroke="#85200c" stroke-width="1.0" stroke-linecap="butt" d="m395.10114 127.58558l1.1292725 -4.6954575l-3.8832397 2.8710556z" fill-rule="evenodd"/><path fill="#000000" fill-opacity="0.0" d="m352.40787 189.04147l44.629913 83.40158" fill-rule="evenodd"/><path stroke="#351c75" stroke-width="1.0" stroke-linejoin="round" stroke-linecap="butt" d="m352.40784 189.04146l41.799072 78.111374" fill-rule="evenodd"/><path fill="#351c75" stroke="#351c75" stroke-width="1.0" stroke-linecap="butt" d="m392.75055 267.93216l3.5974731 3.2219238l-0.68481445 -4.780548z" fill-rule="evenodd"/><path fill="#000000" fill-opacity="0.0" d="m397.0243 259.36728l0 0c0 -1.8731995 1.5185242 -3.391739 3.3917236 -3.391739l88.83859 0c0.89953613 0 1.7622375 0.35734558 2.3983154 0.99342346c0.63604736 0.6360779 0.9934082 1.4987793 0.9934082 2.3983154l0 26.129944c0 1.873169 -1.5185242 3.3917236 -3.3917236 3.3917236l-88.83859 0c-1.8731995 0 -3.3917236 -1.5185547 -3.3917236 -3.3917236z" fill-rule="evenodd"/><path stroke="#351c75" stroke-width="1.0" stroke-linejoin="round" stroke-linecap="butt" d="m397.0243 259.36728l0 0c0 -1.8731995 1.5185242 -3.391739 3.3917236 -3.391739l88.83859 0c0.89953613 0 1.7622375 0.35734558 2.3983154 0.99342346c0.63604736 0.6360779 0.9934082 1.4987793 0.9934082 2.3983154l0 26.129944c0 1.873169 -1.5185242 3.3917236 -3.3917236 3.3917236l-88.83859 0c-1.8731995 0 -3.3917236 -1.5185547 -3.3917236 -3.3917236z" fill-rule="evenodd"/><path fill="#351c75" d="m424.29373 269.68036l2.390625 0l0 1.421875q0.46875 -0.734375 1.25 -1.1875q0.796875 -0.453125 1.765625 -0.453125q1.6875 0 2.859375 1.328125q1.171875 1.3125 1.171875 3.671875q0 2.421875 -1.1875 3.765625q-1.1875 1.34375 -2.859375 1.34375q-0.8125 0 -1.46875 -0.3125q-0.640625 -0.328125 -1.359375 -1.09375l0 4.875l-2.5625 0l0 -13.359375zm2.53125 4.671875q0 1.625 0.640625 2.40625q0.65625 0.78125 1.578125 0.78125q0.90625 0 1.484375 -0.71875q0.59375 -0.71875 0.59375 -2.34375q0 -1.515625 -0.609375 -2.25q-0.609375 -0.75 -1.515625 -0.75q-0.9375 0 -1.5625 0.734375q-0.609375 0.71875 -0.609375 2.140625zm8.942841 5.0l0 -13.359375l2.5625 0l0 13.359375l-2.5625 0zm11.542694 0l0 -1.453125q-0.53125 0.78125 -1.390625 1.234375q-0.859375 0.4375 -1.8125 0.4375q-0.96875 0 -1.75 -0.421875q-0.765625 -0.4375 -1.125 -1.203125q-0.34375 -0.78125 -0.34375 -2.140625l0 -6.125l2.5625 0l0 4.4375q0 2.046875 0.140625 2.515625q0.140625 0.453125 0.515625 0.71875q0.375 0.265625 0.953125 0.265625q0.65625 0 1.171875 -0.359375q0.515625 -0.359375 0.703125 -0.890625q0.203125 -0.53125 0.203125 -2.609375l0 -4.078125l2.546875 0l0 9.671875l-2.375 0zm7.4897156 0l-2.5625 0l0 -9.671875l2.375 0l0 1.375q0.609375 -0.984375 1.09375 -1.28125q0.484375 -0.3125 1.109375 -0.3125q0.875 0 1.6875 0.484375l-0.796875 2.234375q-0.640625 -0.421875 -1.203125 -0.421875q-0.53125 0 -0.90625 0.296875q-0.375 0.296875 -0.59375 1.078125q-0.203125 0.765625 -0.203125 3.234375l0 2.984375zm6.7134094 -6.71875l-2.328125 -0.421875q0.40625 -1.40625 1.359375 -2.078125q0.953125 -0.671875 2.8437195 -0.671875q1.703125 0 2.546875 0.40625q0.84375 0.40625 1.171875 1.03125q0.34375 0.625 0.34375 2.28125l-0.015625 3.0q0 1.265625 0.109375 1.875q0.125 0.609375 0.46875 1.296875l-2.53125 0q-0.109375 -0.25 -0.25 -0.75q-0.0625 -0.234375 -0.09375 -0.3125q-0.65625 0.640625 -1.40625 0.96875q-0.734375 0.3125 -1.59375 0.3125q-1.4843445 0 -2.3437195 -0.8125q-0.859375 -0.8125 -0.859375 -2.046875q0 -0.828125 0.390625 -1.46875q0.390625 -0.640625 1.09375 -0.96875q0.703125 -0.34375 2.0312195 -0.609375q1.796875 -0.328125 2.484375 -0.625l0 -0.25q0 -0.75 -0.359375 -1.0625q-0.359375 -0.3125 -1.375 -0.3125q-0.6875 0 -1.078125 0.28125q-0.37496948 0.265625 -0.6093445 0.9375zm3.4218445 2.078125q-0.484375 0.15625 -1.5625 0.390625q-1.0625 0.21875 -1.3905945 0.4375q-0.5 0.359375 -0.5 0.90625q0 0.53125 0.40625 0.9375q0.40621948 0.390625 1.0155945 0.390625q0.703125 0 1.328125 -0.46875q0.46875 -0.34375 0.609375 -0.84375q0.09375 -0.328125 0.09375 -1.25l0 -0.5zm5.0476074 4.640625l0 -13.359375l2.5625 0l0 13.359375l-2.5625 0z" fill-rule="nonzero"/><path fill="#000000" fill-opacity="0.0" d="m199.96692 189.04147l-40.755905 -69.039375" fill-rule="evenodd"/><path stroke="#674ea7" stroke-width="1.0" stroke-linejoin="round" stroke-linecap="butt" d="m199.96692 189.04147l-40.755905 -69.039375" fill-rule="evenodd"/><path fill="#000000" fill-opacity="0.0" d="m199.96466 37.45813l0 0c0 -3.7283592 3.0224304 -6.7507915 6.7507935 -6.7507915l98.214966 0c1.7904053 0 3.5075073 0.7112427 4.773529 1.9772625c1.2660217 1.2660179 1.9772644 2.9831085 1.9772644 4.773529l0 27.002357c0 3.7283554 -3.022461 6.750786 -6.7507935 6.750786l-98.214966 0c-3.728363 0 -6.7507935 -3.0224304 -6.7507935 -6.750786z" fill-rule="evenodd"/><path stroke="#38761d" stroke-width="1.0" stroke-linejoin="round" stroke-linecap="butt" d="m199.96466 37.45813l0 0c0 -3.7283592 3.0224304 -6.7507915 6.7507935 -6.7507915l98.214966 0c1.7904053 0 3.5075073 0.7112427 4.773529 1.9772625c1.2660217 1.2660179 1.9772644 2.9831085 1.9772644 4.773529l0 27.002357c0 3.7283554 -3.022461 6.750786 -6.7507935 6.750786l-98.214966 0c-3.728363 0 -6.7507935 -3.0224304 -6.7507935 -6.750786z" fill-rule="evenodd"/><path fill="#38761d" d="m219.97731 55.11368l2.5625 -0.390625q0.171875 0.75 0.671875 1.140625q0.5 0.390625 1.40625 0.390625q0.984375 0 1.484375 -0.375q0.34375 -0.25 0.34375 -0.671875q0 -0.296875 -0.1875 -0.484375q-0.1875 -0.1875 -0.859375 -0.34375q-3.09375 -0.6875 -3.921875 -1.25q-1.140625 -0.78125 -1.140625 -2.171875q0 -1.265625 0.984375 -2.109375q1.0 -0.859375 3.078125 -0.859375q1.984375 0 2.953125 0.65625q0.96875 0.640625 1.328125 1.90625l-2.40625 0.4375q-0.15625 -0.5625 -0.59375 -0.859375q-0.421875 -0.296875 -1.234375 -0.296875q-1.0 0 -1.4375 0.28125q-0.296875 0.203125 -0.296875 0.515625q0 0.265625 0.25 0.46875q0.34375 0.25 2.390625 0.71875q2.046875 0.453125 2.859375 1.140625q0.796875 0.671875 0.796875 1.890625q0 1.34375 -1.109375 2.296875q-1.109375 0.953125 -3.28125 0.953125q-1.984375 0 -3.140625 -0.796875q-1.140625 -0.8125 -1.5 -2.1875zm11.281967 -8.21875l0 -2.375l2.5625 0l0 2.375l-2.5625 0zm0 10.984375l0 -9.671875l2.5625 0l0 9.671875l-2.5625 0zm13.980179 0l-2.5625 0l0 -4.9375q0 -1.5625 -0.171875 -2.015625q-0.15625 -0.46875 -0.53125 -0.71875q-0.359375 -0.265625 -0.875 -0.265625q-0.671875 0 -1.203125 0.375q-0.53125 0.359375 -0.734375 0.96875q-0.1875 0.59375 -0.1875 2.21875l0 4.375l-2.546875 0l0 -9.671875l2.375 0l0 1.421875q1.265625 -1.640625 3.1875 -1.640625q0.84375 0 1.546875 0.3125q0.703125 0.296875 1.0625 0.78125q0.359375 0.46875 0.5 1.078125q0.140625 0.59375 0.140625 1.703125l0 6.015625zm2.3647308 0.640625l2.921875 0.359375q0.0625 0.5 0.328125 0.6875q0.375 0.28125 1.15625 0.28125q1.0 0 1.5 -0.296875q0.328125 -0.203125 0.515625 -0.65625q0.109375 -0.3125 0.109375 -1.171875l0 -1.40625q-1.140625 1.5625 -2.890625 1.5625q-1.953125 0 -3.09375 -1.65625q-0.890625 -1.296875 -0.890625 -3.234375q0 -2.4375 1.171875 -3.71875q1.171875 -1.28125 2.90625 -1.28125q1.796875 0 2.96875 1.578125l0 -1.359375l2.390625 0l0 8.671875q0 1.71875 -0.28125 2.5625q-0.28125 0.84375 -0.796875 1.328125q-0.5 0.484375 -1.359375 0.75q-0.84375 0.28125 -2.15625 0.28125q-2.453125 0 -3.484375 -0.84375q-1.03125 -0.84375 -1.03125 -2.125q0 -0.140625 0.015625 -0.3125zm2.28125 -5.671875q0 1.53125 0.59375 2.25q0.59375 0.71875 1.46875 0.71875q0.9375 0 1.578125 -0.734375q0.65625 -0.734375 0.65625 -2.171875q0 -1.515625 -0.625 -2.234375q-0.609375 -0.734375 -1.5625 -0.734375q-0.921875 0 -1.515625 0.71875q-0.59375 0.71875 -0.59375 2.1875zm15.708466 5.03125l0 -1.453125q-0.53125 0.78125 -1.390625 1.234375q-0.859375 0.4375 -1.8125 0.4375q-0.96875 0 -1.75 -0.421875q-0.765625 -0.4375 -1.125 -1.203125q-0.34375 -0.78125 -0.34375 -2.140625l0 -6.125l2.5625 0l0 4.4375q0 2.046875 0.140625 2.515625q0.140625 0.453125 0.515625 0.71875q0.375 0.265625 0.953125 0.265625q0.65625 0 1.171875 -0.359375q0.515625 -0.359375 0.703125 -0.890625q0.203125 -0.53125 0.203125 -2.609375l0 -4.078125l2.546875 0l0 9.671875l-2.375 0zm5.036621 0l0 -13.359375l2.5625 0l0 13.359375l-2.5625 0zm7.0895386 -6.71875l-2.328125 -0.421875q0.40625 -1.40625 1.359375 -2.078125q0.953125 -0.671875 2.84375 -0.671875q1.703125 0 2.546875 0.40625q0.84375 0.40625 1.171875 1.03125q0.34375 0.625 0.34375 2.28125l-0.015625 3.0q0 1.265625 0.109375 1.875q0.125 0.609375 0.46875 1.296875l-2.53125 0q-0.109375 -0.25 -0.25 -0.75q-0.0625 -0.234375 -0.09375 -0.3125q-0.65625 0.640625 -1.40625 0.96875q-0.734375 0.3125 -1.59375 0.3125q-1.484375 0 -2.34375 -0.8125q-0.859375 -0.8125 -0.859375 -2.046875q0 -0.828125 0.390625 -1.46875q0.390625 -0.640625 1.09375 -0.96875q0.703125 -0.34375 2.03125 -0.609375q1.796875 -0.328125 2.484375 -0.625l0 -0.25q0 -0.75 -0.359375 -1.0625q-0.359375 -0.3125 -1.375 -0.3125q-0.6875 0 -1.078125 0.28125q-0.375 0.265625 -0.609375 0.9375zm3.421875 2.078125q-0.484375 0.15625 -1.5625 0.390625q-1.0625 0.21875 -1.390625 0.4375q-0.5 0.359375 -0.5 0.90625q0 0.53125 0.40625 0.9375q0.40625 0.390625 1.015625 0.390625q0.703125 0 1.328125 -0.46875q0.46875 -0.34375 0.609375 -0.84375q0.09375 -0.328125 0.09375 -1.25l0 -0.5zm7.5007324 4.640625l-2.5625 0l0 -9.671875l2.375 0l0 1.375q0.609375 -0.984375 1.09375 -1.28125q0.484375 -0.3125 1.109375 -0.3125q0.875 0 1.6875 0.484375l-0.796875 2.234375q-0.640625 -0.421875 -1.203125 -0.421875q-0.53125 0 -0.90625 0.296875q-0.375 0.296875 -0.59375 1.078125q-0.203125 0.765625 -0.203125 3.234375l0 2.984375z" fill-rule="nonzero"/><path fill="#000000" fill-opacity="0.0" d="m199.96466 50.95931l-40.755905 69.03937" fill-rule="evenodd"/><path stroke="#38761d" stroke-width="1.0" stroke-linejoin="round" stroke-linecap="butt" d="m199.96466 50.95931l-40.755905 69.03937" fill-rule="evenodd"/><path fill="#000000" fill-opacity="0.0" d="m492.64633 272.43225l45.543304 -83.40158" fill-rule="evenodd"/><path stroke="#741b47" stroke-width="1.0" stroke-linejoin="round" stroke-linecap="butt" d="m492.64633 272.43225l42.667694 -78.13556" fill-rule="evenodd"/><path fill="#741b47" stroke="#741b47" stroke-width="1.0" stroke-linecap="butt" d="m536.7637 195.0883l0.7253418 -4.7745667l-3.6246948 3.1913147z" fill-rule="evenodd"/><path fill="#ffffff" d="m3.5905511 97.732285l0 0c0 -6.1491776 4.9848976 -11.134079 11.134081 -11.134079l133.35388 0c2.952942 0 5.7849274 1.1730499 7.872986 3.2610931c2.0880432 2.0880508 3.2610931 4.920044 3.2610931 7.872986l0 44.53499c0 6.149185 -4.984894 11.134079 -11.134079 11.134079l-133.35388 0l0 0c-6.1491833 0 -11.134081 -4.984894 -11.134081 -11.134079z" fill-rule="evenodd"/><path stroke="#999999" stroke-width="2.0" stroke-linejoin="round" stroke-linecap="butt" d="m3.5905511 97.732285l0 0c0 -6.1491776 4.9848976 -11.134079 11.134081 -11.134079l133.35388 0c2.952942 0 5.7849274 1.1730499 7.872986 3.2610931c2.0880432 2.0880508 3.2610931 4.920044 3.2610931 7.872986l0 44.53499c0 6.149185 -4.984894 11.134079 -11.134079 11.134079l-133.35388 0l0 0c-6.1491833 0 -11.134081 -4.984894 -11.134081 -11.134079z" fill-rule="evenodd"/><path fill="#595959" d="m31.56454 121.40415q-0.71875 0 -1.234375 -0.515625q-0.515625 -0.515625 -0.515625 -1.25q0 -0.71875 0.5 -1.234375q0.515625 -0.53125 1.25 -0.53125q0.71875 0 1.25 0.515625q0.53125 0.515625 0.53125 1.25q0 0.75 -0.53125 1.265625q-0.53125 0.5 -1.25 0.5zm-0.9375 4.46875q-0.71875 0 -1.234375 -0.515625q-0.515625 -0.515625 -0.515625 -1.234375q0 -0.734375 0.5 -1.25q0.515625 -0.53125 1.25 -0.53125q0.734375 0 1.25 0.53125q0.53125 0.515625 0.53125 1.25q0 0.734375 -0.53125 1.25q-0.515625 0.5 -1.25 0.5zm4.3562164 -8.84375l3.265625 0l-0.140625 0.65625q0.015625 -0.015625 0.578125 -0.328125q0.5625 -0.328125 1.234375 -0.328125q0.71875 0 1.140625 0.515625q0.421875 0.5 0.421875 1.171875q0 0.640625 -0.4375 1.140625q-0.421875 0.5 -1.1875 0.5q-0.546875 0 -0.75 -0.28125q-0.203125 -0.28125 -0.28125 -0.703125q-0.046875 -0.21875 -0.046875 -0.25q0 -0.03125 0 0q-0.3125 0 -0.53125 0.140625q-0.21875 0.125 -0.578125 0.421875l-1.5 7.234375l-3.265625 0l2.078125 -9.890625zm9.233505 10.0q-1.5 0 -2.359375 -0.796875q-0.84375 -0.796875 -0.84375 -2.453125q0 -1.328125 0.515625 -2.921875q0.53125 -1.609375 1.734375 -2.796875q1.21875 -1.203125 3.078125 -1.203125q2.328125 0 2.328125 2.078125q0 1.140625 -0.640625 2.078125q-0.640625 0.9375 -1.6875 1.5q-1.046875 0.5625 -1.96875 0.625q-0.03125 0.3125 -0.03125 0.484375q0 0.796875 0.234375 1.046875q0.25 0.234375 0.828125 0.234375q0.9375 0 1.59375 -0.4375q0.671875 -0.4375 1.578125 -1.453125l1.265625 0q-2.40625 4.015625 -5.625 4.015625zm0.375 -5.359375q0.25 -0.015625 0.8125 -0.40625q0.5625 -0.40625 0.90625 -1.046875q0.359375 -0.640625 0.359375 -1.328125q0 -0.46875 -0.1875 -0.46875q-0.5 0 -1.09375 1.078125q-0.59375 1.078125 -0.796875 2.171875zm3.0233765 9.921883q-1.0 0 -1.734375 -0.65625q-0.75 -0.640625 -0.75 -1.640625q0 -0.90625 0.453125 -1.5000076q0.453125 -0.578125 1.15625 -0.90625q0.6875 -0.328125 1.640625 -0.625l2.203125 -10.484375q0.40625 -1.890625 1.421875 -2.640625q1.03125 -0.75 2.265625 -0.75q0.984375 0 1.734375 0.65625q0.75 0.640625 0.75 1.640625q0 0.453125 -0.109375 1.046875l-1.40625 0q0.046875 -0.71875 0.046875 -0.796875q0 -0.15625 -0.109375 -0.25q-0.109375 -0.09375 -0.3125 -0.09375q-0.28125 0 -0.59375 0.28125q-0.296875 0.265625 -0.4375 1.03125l-0.25 1.125l1.34375 0l-0.21875 1.3125l-1.375 0l-2.109375 9.859383q-0.40625 1.890625 -1.40625 2.640625q-0.984375 0.75 -2.203125 0.75zm-0.4375 -2.234375q0.515625 0 0.78125 -1.234375l0.140625 -0.5937576q-0.46875 0.15625 -0.921875 0.5312576q-0.46875 0.375 -0.46875 0.96875q0 0.09375 0.140625 0.203125q0.140625 0.125 0.328125 0.125zm10.340591 -2.3281326q-1.5 0 -2.359375 -0.796875q-0.84375 -0.796875 -0.84375 -2.453125q0 -1.328125 0.515625 -2.921875q0.53125 -1.609375 1.734375 -2.796875q1.21875 -1.203125 3.078125 -1.203125q2.328125 0 2.328125 2.078125q0 1.140625 -0.640625 2.078125q-0.640625 0.9375 -1.6875 1.5q-1.046875 0.5625 -1.96875 0.625q-0.03125 0.3125 -0.03125 0.484375q0 0.796875 0.234375 1.046875q0.25 0.234375 0.828125 0.234375q0.9375 0 1.59375 -0.4375q0.671875 -0.4375 1.578125 -1.453125l1.265625 0q-2.40625 4.015625 -5.625 4.015625zm0.375 -5.359375q0.25 -0.015625 0.8125 -0.40625q0.5625 -0.40625 0.90625 -1.046875q0.359375 -0.640625 0.359375 -1.328125q0 -0.46875 -0.1875 -0.46875q-0.5 0 -1.09375 1.078125q-0.59375 1.078125 -0.796875 2.171875zm5.7265015 -4.640625l3.2656288 0l-0.140625 0.65625q0.015625 -0.015625 0.578125 -0.328125q0.5625 -0.328125 1.234375 -0.328125q0.71875 0 1.140625 0.515625q0.421875 0.5 0.421875 1.171875q0 0.640625 -0.4375 1.140625q-0.421875 0.5 -1.1875 0.5q-0.546875 0 -0.75 -0.28125q-0.203125 -0.28125 -0.28125 -0.703125q-0.046875 -0.21875 -0.046875 -0.25q0 -0.03125 0 0q-0.3125 0 -0.53125 0.140625q-0.21875 0.125 -0.578125 0.421875l-1.5 7.234375l-3.2656288 0l2.078125 -9.890625zm7.030384 3.71875l4.296875 0l-0.421875 2.03125l-4.328125 0l0.453125 -2.03125zm12.254059 6.28125q-1.265625 0 -1.875 -0.6875q-0.609375 -0.6875 -0.609375 -1.703125q0 -0.421875 0.09375 -0.921875q0.09375 -0.515625 0.203125 -0.984375q0.109375 -0.484375 0.15625 -0.609375q0.125 -0.640625 0.25 -1.25q0.140625 -0.625 0.140625 -0.984375q0 -0.671875 -0.390625 -0.671875q-0.34375 0 -0.671875 0.40625q-0.3125 0.390625 -0.515625 1.09375l-1.296875 6.203125l-3.265625 0l2.078125 -9.890625l3.265625 0l-0.09375 0.34375q0.359375 -0.421875 1.734375 -0.421875q1.0625 0 1.703125 0.609375q0.640625 0.59375 0.640625 1.78125q0 0.578125 -0.125 1.265625q-0.125 0.671875 -0.390625 1.625q-0.140625 0.5625 -0.265625 1.109375q-0.109375 0.53125 -0.109375 0.8125q0 0.28125 0.09375 0.390625q0.09375 0.109375 0.375 0.109375q0.421875 0 0.6875 -0.328125q0.28125 -0.328125 0.6875 -1.3125l1.359375 0q-0.84375 2.515625 -1.828125 3.265625q-0.96875 0.75 -2.03125 0.75zm5.108902 0q-1.0 0 -1.640625 -0.640625q-0.640625 -0.640625 -0.640625 -1.875q0 -0.5 0.15625 -1.28125l1.3125 -6.203125l3.265625 0l-1.40625 6.671875q-0.046875 0.25 -0.046875 0.46875q0 0.484375 0.265625 0.484375q0.40625 0 0.71875 -0.359375q0.3125 -0.375 0.515625 -1.0625l1.296875 -6.203125l3.265625 0l-1.421875 6.6875q-0.0625 0.25 -0.0625 0.53125q0 0.25 0.09375 0.328125q0.09375 0.078125 0.390625 0.078125q0.40625 0 0.71875 -0.375q0.328125 -0.375 0.578125 -1.265625l1.390625 0q-0.84375 2.46875 -1.9375 3.25q-1.078125 0.765625 -2.203125 0.765625q-0.90625 0 -1.46875 -0.515625q-0.546875 -0.515625 -0.5625 -0.703125q-0.25 0.40625 -1.015625 0.8125q-0.75 0.40625 -1.5625 0.40625zm19.499527 0q-1.265625 0 -1.875 -0.6875q-0.609375 -0.6875 -0.609375 -1.703125q0 -0.421875 0.09375 -0.921875q0.09375 -0.515625 0.203125 -0.984375q0.109375 -0.484375 0.15625 -0.609375q0.125 -0.640625 0.25 -1.25q0.140625 -0.625 0.140625 -0.984375q0 -0.671875 -0.390625 -0.671875q-0.34375 0 -0.671875 0.40625q-0.3125 0.390625 -0.515625 1.09375l-1.3125 6.203125l-3.25 0l1.421875 -6.78125q0.046875 -0.1875 0.046875 -0.40625q0 -0.53125 -0.28125 -0.53125q-0.375 0 -0.703125 0.40625q-0.328125 0.390625 -0.53125 1.109375l-1.296875 6.203125l-3.265625 0l2.078125 -9.890625l3.265625 0l-0.09375 0.34375q0.375 -0.4375 1.828125 -0.4375q1.875 0 2.078125 1.125q0.703125 -1.109375 2.4375 -1.109375q1.0625 0 1.703125 0.609375q0.640625 0.59375 0.640625 1.78125q0 0.578125 -0.140625 1.265625q-0.125 0.671875 -0.375 1.625q-0.140625 0.5625 -0.265625 1.109375q-0.109375 0.53125 -0.109375 0.8125q0 0.28125 0.09375 0.390625q0.09375 0.109375 0.375 0.109375q0.421875 0 0.6875 -0.328125q0.28125 -0.328125 0.6875 -1.3125l1.359375 0q-0.84375 2.515625 -1.828125 3.265625q-0.96875 0.75 -2.03125 0.75zm5.7482605 0q-1.375 0 -2.140625 -0.703125q-0.75 -0.703125 -0.75 -1.96875q0 -0.578125 0.125 -1.125l2.046875 -9.53125l3.34375 -0.453125l-0.84375 3.96875q0.015625 -0.015625 0.375 -0.125q0.375 -0.125 0.75 -0.125q2.484375 0 2.484375 3.484375q0 1.328125 -0.515625 2.84375q-0.5 1.515625 -1.71875 2.625q-1.21875 1.109375 -3.15625 1.109375zm1.046875 -2.375q0.4375 0 0.875 -0.640625q0.4375 -0.640625 0.71875 -1.65625q0.296875 -1.03125 0.296875 -1.984375q0 -0.6875 -0.203125 -1.09375q-0.203125 -0.421875 -0.5 -0.421875q-0.25 0 -0.53125 0.078125q-0.265625 0.0625 -0.296875 0.109375l-1.03125 4.671875q-0.046875 0.203125 -0.046875 0.359375q0 0.578125 0.71875 0.578125zm8.002121 2.375q-1.5 0 -2.359375 -0.796875q-0.84375 -0.796875 -0.84375 -2.453125q0 -1.328125 0.515625 -2.921875q0.53125 -1.609375 1.734375 -2.796875q1.21875 -1.203125 3.078125 -1.203125q2.328125 0 2.328125 2.078125q0 1.140625 -0.640625 2.078125q-0.640625 0.9375 -1.6875 1.5q-1.046875 0.5625 -1.96875 0.625q-0.03125 0.3125 -0.03125 0.484375q0 0.796875 0.234375 1.046875q0.25 0.234375 0.828125 0.234375q0.9375 0 1.59375 -0.4375q0.671875 -0.4375 1.578125 -1.453125l1.265625 0q-2.40625 4.015625 -5.625 4.015625zm0.375 -5.359375q0.25 -0.015625 0.8125 -0.40625q0.5625 -0.40625 0.90625 -1.046875q0.359375 -0.640625 0.359375 -1.328125q0 -0.46875 -0.1875 -0.46875q-0.5 0 -1.09375 1.078125q-0.59375 1.078125 -0.796875 2.171875zm5.7265015 -4.640625l3.265625 0l-0.140625 0.65625q0.015625 -0.015625 0.578125 -0.328125q0.5625 -0.328125 1.234375 -0.328125q0.71875 0 1.140625 0.515625q0.421875 0.5 0.421875 1.171875q0 0.640625 -0.4375 1.140625q-0.421875 0.5 -1.1875 0.5q-0.546875 0 -0.75 -0.28125q-0.203125 -0.28125 -0.28125 -0.703125q-0.046875 -0.21875 -0.046875 -0.25q0 -0.03125 0 0q-0.3125 0 -0.53125 0.140625q-0.21875 0.125 -0.578125 0.421875l-1.5 7.234375l-3.265625 0l2.078125 -9.890625z" fill-rule="nonzero"/><path fill="#000000" fill-opacity="0.0" d="m538.1999 316.30463l0 0c0 -4.6097107 3.7369385 -8.346619 8.346619 -8.346619l142.80286 0c2.213623 0 4.336609 0.879364 5.9019165 2.4446716c1.5653076 1.5652771 2.4447021 3.6882935 2.4447021 5.901947l0 33.385498c0 4.6097107 -3.7369385 8.346619 -8.346619 8.346619l-142.80286 0c-4.60968 0 -8.346619 -3.736908 -8.346619 -8.346619z" fill-rule="evenodd"/><path stroke="#1155cc" stroke-width="1.0" stroke-linejoin="round" stroke-linecap="butt" d="m538.1999 316.30463l0 0c0 -4.6097107 3.7369385 -8.346619 8.346619 -8.346619l142.80286 0c2.213623 0 4.336609 0.879364 5.9019165 2.4446716c1.5653076 1.5652771 2.4447021 3.6882935 2.4447021 5.901947l0 33.385498c0 4.6097107 -3.7369385 8.346619 -8.346619 8.346619l-142.80286 0c-4.60968 0 -8.346619 -3.736908 -8.346619 -8.346619z" fill-rule="evenodd"/><path fill="#1155cc" d="m558.92554 340.55798l2.921875 0.359375q0.0625 0.5 0.328125 0.6875q0.375 0.28125 1.15625 0.28125q1.0 0 1.5 -0.296875q0.328125 -0.203125 0.515625 -0.65625q0.109375 -0.3125 0.109375 -1.171875l0 -1.40625q-1.140625 1.5625 -2.890625 1.5625q-1.953125 0 -3.09375 -1.65625q-0.890625 -1.296875 -0.890625 -3.234375q0 -2.4375 1.171875 -3.71875q1.171875 -1.28125 2.90625 -1.28125q1.796875 0 2.96875 1.578125l0 -1.359375l2.390625 0l0 8.671875q0 1.71875 -0.28125 2.5625q-0.28125 0.84375 -0.796875 1.328125q-0.5 0.484375 -1.359375 0.75q-0.84375 0.28125 -2.15625 0.28125q-2.453125 0 -3.484375 -0.84375q-1.03125 -0.84375 -1.03125 -2.125q0 -0.140625 0.015625 -0.3125zm2.28125 -5.671875q0 1.53125 0.59375 2.25q0.59375 0.71875 1.46875 0.71875q0.9375 0 1.578125 -0.734375q0.65625 -0.734375 0.65625 -2.171875q0 -1.515625 -0.625 -2.234375q-0.609375 -0.734375 -1.5625 -0.734375q-0.921875 0 -1.515625 0.71875q-0.59375 0.71875 -0.59375 2.1875zm11.802246 5.03125l-2.5625 0l0 -9.671875l2.375 0l0 1.375q0.609375 -0.984375 1.09375 -1.28125q0.484375 -0.3125 1.109375 -0.3125q0.875 0 1.6875 0.484375l-0.796875 2.234375q-0.640625 -0.421875 -1.203125 -0.421875q-0.53125 0 -0.90625 0.296875q-0.375 0.296875 -0.59375 1.078125q-0.203125 0.765625 -0.203125 3.234375l0 2.984375zm10.400879 -3.078125l2.546875 0.421875q-0.484375 1.40625 -1.546875 2.140625q-1.0625 0.734375 -2.65625 0.734375q-2.515625 0 -3.734375 -1.65625q-0.953125 -1.3125 -0.953125 -3.328125q0 -2.40625 1.25 -3.765625q1.265625 -1.359375 3.1875 -1.359375q2.15625 0 3.40625 1.421875q1.25 1.421875 1.1875 4.375l-6.40625 0q0.03125 1.140625 0.609375 1.78125q0.59375 0.625 1.484375 0.625q0.59375 0 1.0 -0.328125q0.421875 -0.328125 0.625 -1.0625zm0.15625 -2.59375q-0.03125 -1.109375 -0.578125 -1.6875q-0.546875 -0.578125 -1.328125 -0.578125q-0.84375 0 -1.390625 0.609375q-0.546875 0.609375 -0.53125 1.65625l3.828125 0zm6.5319824 -1.046875l-2.328125 -0.421875q0.40625 -1.40625 1.359375 -2.078125q0.953125 -0.671875 2.84375 -0.671875q1.703125 0 2.546875 0.40625q0.84375 0.40625 1.171875 1.03125q0.34375 0.625 0.34375 2.28125l-0.015625 3.0q0 1.265625 0.109375 1.875q0.125 0.609375 0.46875 1.296875l-2.53125 0q-0.109375 -0.25 -0.25 -0.75q-0.0625 -0.234375 -0.09375 -0.3125q-0.65625 0.640625 -1.40625 0.96875q-0.734375 0.3125 -1.59375 0.3125q-1.484375 0 -2.34375 -0.8125q-0.859375 -0.8125 -0.859375 -2.046875q0 -0.828125 0.390625 -1.46875q0.390625 -0.640625 1.09375 -0.96875q0.703125 -0.34375 2.03125 -0.609375q1.796875 -0.328125 2.484375 -0.625l0 -0.25q0 -0.75 -0.359375 -1.0625q-0.359375 -0.3125 -1.375 -0.3125q-0.6875 0 -1.078125 0.28125q-0.375 0.265625 -0.609375 0.9375zm3.421875 2.078125q-0.484375 0.15625 -1.5625 0.390625q-1.0625 0.21875 -1.390625 0.4375q-0.5 0.359375 -0.5 0.90625q0 0.53125 0.40625 0.9375q0.40625 0.390625 1.015625 0.390625q0.703125 0 1.328125 -0.46875q0.46875 -0.34375 0.609375 -0.84375q0.09375 -0.328125 0.09375 -1.25l0 -0.5zm9.485046 -5.03125l0 2.03125l-1.75 0l0 3.90625q0 1.1875 0.046875 1.390625q0.046875 0.1875 0.21875 0.3125q0.1875 0.125 0.4375 0.125q0.359375 0 1.03125 -0.25l0.21875 2.0q-0.890625 0.375 -2.015625 0.375q-0.703125 0 -1.265625 -0.234375q-0.546875 -0.234375 -0.8125 -0.59375q-0.25 -0.375 -0.34375 -1.0q-0.09375 -0.453125 -0.09375 -1.8125l0 -4.21875l-1.171875 0l0 -2.03125l1.171875 0l0 -1.921875l2.578125 -1.5l0 3.421875l1.75 0zm7.3689575 6.59375l2.546875 0.421875q-0.484375 1.40625 -1.546875 2.140625q-1.0625 0.734375 -2.65625 0.734375q-2.515625 0 -3.734375 -1.65625q-0.953125 -1.3125 -0.953125 -3.328125q0 -2.40625 1.25 -3.765625q1.265625 -1.359375 3.1875 -1.359375q2.15625 0 3.40625 1.421875q1.25 1.421875 1.1875 4.375l-6.40625 0q0.03125 1.140625 0.609375 1.78125q0.59375 0.625 1.484375 0.625q0.59375 0 1.0 -0.328125q0.421875 -0.328125 0.625 -1.0625zm0.15625 -2.59375q-0.03125 -1.109375 -0.578125 -1.6875q-0.546875 -0.578125 -1.328125 -0.578125q-0.84375 0 -1.390625 0.609375q-0.546875 0.609375 -0.53125 1.65625l3.828125 0zm7.0788574 5.671875l-2.5625 0l0 -9.671875l2.375 0l0 1.375q0.609375 -0.984375 1.09375 -1.28125q0.484375 -0.3125 1.109375 -0.3125q0.875 0 1.6875 0.484375l-0.796875 2.234375q-0.640625 -0.421875 -1.203125 -0.421875q-0.53125 0 -0.90625 0.296875q-0.375 0.296875 -0.59375 1.078125q-0.203125 0.765625 -0.203125 3.234375l0 2.984375zm4.510254 -3.5625l0 -2.5625l5.03125 0l0 2.5625l-5.03125 0zm6.4313965 -6.109375l2.390625 0l0 1.421875q0.46875 -0.734375 1.25 -1.1875q0.796875 -0.453125 1.765625 -0.453125q1.6875 0 2.859375 1.328125q1.171875 1.3125 1.171875 3.671875q0 2.421875 -1.1875 3.765625q-1.1875 1.34375 -2.859375 1.34375q-0.8125 0 -1.46875 -0.3125q-0.640625 -0.328125 -1.359375 -1.09375l0 4.875l-2.5625 0l0 -13.359375zm2.53125 4.671875q0 1.625 0.640625 2.40625q0.65625 0.78125 1.578125 0.78125q0.90625 0 1.484375 -0.71875q0.59375 -0.71875 0.59375 -2.34375q0 -1.515625 -0.609375 -2.25q-0.609375 -0.75 -1.515625 -0.75q-0.9375 0 -1.5625 0.734375q-0.609375 0.71875 -0.609375 2.140625zm8.942871 5.0l0 -13.359375l2.5625 0l0 13.359375l-2.5625 0zm11.542664 0l0 -1.453125q-0.53125 0.78125 -1.390625 1.234375q-0.859375 0.4375 -1.8125 0.4375q-0.96875 0 -1.75 -0.421875q-0.765625 -0.4375 -1.125 -1.203125q-0.34375 -0.78125 -0.34375 -2.140625l0 -6.125l2.5625 0l0 4.4375q0 2.046875 0.140625 2.515625q0.140625 0.453125 0.515625 0.71875q0.375 0.265625 0.953125 0.265625q0.65625 0 1.171875 -0.359375q0.515625 -0.359375 0.703125 -0.890625q0.203125 -0.53125 0.203125 -2.609375l0 -4.078125l2.546875 0l0 9.671875l-2.375 0zm7.489746 0l-2.5625 0l0 -9.671875l2.375 0l0 1.375q0.609375 -0.984375 1.09375 -1.28125q0.484375 -0.3125 1.109375 -0.3125q0.875 0 1.6875 0.484375l-0.796875 2.234375q-0.640625 -0.421875 -1.203125 -0.421875q-0.53125 0 -0.90625 0.296875q-0.375 0.296875 -0.59375 1.078125q-0.203125 0.765625 -0.203125 3.234375l0 2.984375zm6.713379 -6.71875l-2.328125 -0.421875q0.40625 -1.40625 1.359375 -2.078125q0.953125 -0.671875 2.84375 -0.671875q1.703125 0 2.546875 0.40625q0.84375 0.40625 1.171875 1.03125q0.34375 0.625 0.34375 2.28125l-0.015625 3.0q0 1.265625 0.109375 1.875q0.125 0.609375 0.46875 1.296875l-2.53125 0q-0.109375 -0.25 -0.25 -0.75q-0.0625 -0.234375 -0.09375 -0.3125q-0.65625 0.640625 -1.40625 0.96875q-0.734375 0.3125 -1.59375 0.3125q-1.484375 0 -2.34375 -0.8125q-0.859375 -0.8125 -0.859375 -2.046875q0 -0.828125 0.390625 -1.46875q0.390625 -0.640625 1.09375 -0.96875q0.703125 -0.34375 2.03125 -0.609375q1.796875 -0.328125 2.484375 -0.625l0 -0.25q0 -0.75 -0.359375 -1.0625q-0.359375 -0.3125 -1.375 -0.3125q-0.6875 0 -1.078125 0.28125q-0.375 0.265625 -0.609375 0.9375zm3.421875 2.078125q-0.484375 0.15625 -1.5625 0.390625q-1.0625 0.21875 -1.390625 0.4375q-0.5 0.359375 -0.5 0.90625q0 0.53125 0.40625 0.9375q0.40625 0.390625 1.015625 0.390625q0.703125 0 1.328125 -0.46875q0.46875 -0.34375 0.609375 -0.84375q0.09375 -0.328125 0.09375 -1.25l0 -0.5zm5.0476074 4.640625l0 -13.359375l2.5625 0l0 13.359375l-2.5625 0z" fill-rule="nonzero"/><path fill="#000000" fill-opacity="0.0" d="m492.64633 272.43225l45.543304 60.566925" fill-rule="evenodd"/><path stroke="#1155cc" stroke-width="1.0" stroke-linejoin="round" stroke-linecap="butt" d="m492.64633 272.43225l41.937347 55.771423" fill-rule="evenodd"/><path fill="#1155cc" stroke="#1155cc" stroke-width="1.0" stroke-linecap="butt" d="m533.2635 329.19635l4.0475464 2.6343994l-1.4072266 -4.619751z" fill-rule="evenodd"/><path fill="#000000" fill-opacity="0.0" d="m492.64633 121.68212l45.543304 67.37008" fill-rule="evenodd"/><path stroke="#85200c" stroke-width="1.0" stroke-linejoin="round" stroke-linecap="butt" d="m492.64633 121.68213l42.182953 62.399338" fill-rule="evenodd"/><path fill="#85200c" stroke="#85200c" stroke-width="1.0" stroke-linecap="butt" d="m533.46094 185.00652l3.9099731 2.8345642l-1.1732178 -4.684677z" fill-rule="evenodd"/><path fill="#000000" fill-opacity="0.0" d="m492.64633 121.68212l45.543304 -68.62991" fill-rule="evenodd"/><path stroke="#990000" stroke-width="1.0" stroke-linejoin="round" stroke-linecap="butt" d="m492.64633 121.68213l42.22574 -63.630577" fill-rule="evenodd"/><path fill="#990000" stroke="#990000" stroke-width="1.0" stroke-linecap="butt" d="m536.2483 58.96485l1.1329956 -4.694557l-3.885498 2.867958z" fill-rule="evenodd"/><path fill="#000000" fill-opacity="0.0" d="m538.1999 36.349247l0 0c0 -4.6097107 3.7369385 -8.346622 8.346619 -8.346622l55.999695 0c2.213684 0 4.33667 0.87937355 5.9019165 2.4446697c1.5653076 1.5652943 2.4447021 3.6882915 2.4447021 5.9019527l0 33.385494c0 4.6097107 -3.7369385 8.346626 -8.346619 8.346626l-55.999695 0c-4.60968 0 -8.346619 -3.7369156 -8.346619 -8.346626z" fill-rule="evenodd"/><path stroke="#990000" stroke-width="1.0" stroke-linejoin="round" stroke-linecap="butt" d="m538.1999 36.349247l0 0c0 -4.6097107 3.7369385 -8.346622 8.346619 -8.346622l55.999695 0c2.213684 0 4.33667 0.87937355 5.9019165 2.4446697c1.5653076 1.5652943 2.4447021 3.6882915 2.4447021 5.9019527l0 33.385494c0 4.6097107 -3.7369385 8.346626 -8.346619 8.346626l-55.999695 0c-4.60968 0 -8.346619 -3.7369156 -8.346619 -8.346626z" fill-rule="evenodd"/><path fill="#990000" d="m565.5896 59.96199l-2.390625 0l0 -1.421875q-0.59375 0.828125 -1.40625 1.234375q-0.796875 0.40625 -1.609375 0.40625q-1.671875 0 -2.859375 -1.34375q-1.1875 -1.34375 -1.1875 -3.75q0 -2.453125 1.15625 -3.734375q1.15625 -1.28125 2.921875 -1.28125q1.625 0 2.8125 1.34375l0 -4.8125l2.5625 0l0 13.359375zm-6.84375 -5.046875q0 1.546875 0.4375 2.234375q0.609375 1.015625 1.71875 1.015625q0.890625 0 1.5 -0.75q0.625 -0.765625 0.625 -2.25q0 -1.671875 -0.609375 -2.40625q-0.59375 -0.734375 -1.53125 -0.734375q-0.90625 0 -1.53125 0.734375q-0.609375 0.71875 -0.609375 2.15625zm15.724121 5.046875l0 -1.453125q-0.53125 0.78125 -1.390625 1.234375q-0.859375 0.4375 -1.8125 0.4375q-0.96875 0 -1.75 -0.421875q-0.765625 -0.4375 -1.125 -1.203125q-0.34375 -0.78125 -0.34375 -2.140625l0 -6.125l2.5625 0l0 4.4375q0 2.046875 0.140625 2.515625q0.140625 0.453125 0.515625 0.71875q0.375 0.265625 0.953125 0.265625q0.65625 0 1.171875 -0.359375q0.515625 -0.359375 0.703125 -0.890625q0.203125 -0.53125 0.203125 -2.609375l0 -4.078125l2.546875 0l0 9.671875l-2.375 0zm6.942871 -6.71875l-2.328125 -0.421875q0.40625 -1.40625 1.359375 -2.078125q0.953125 -0.671875 2.84375 -0.671875q1.703125 0 2.546875 0.40625q0.84375 0.40625 1.171875 1.03125q0.34375 0.625 0.34375 2.28125l-0.015625 3.0q0 1.265625 0.109375 1.875q0.125 0.609375 0.46875 1.296875l-2.53125 0q-0.109375 -0.25 -0.25 -0.75q-0.0625 -0.234375 -0.09375 -0.3125q-0.65625 0.640625 -1.40625 0.96875q-0.734375 0.3125 -1.59375 0.3125q-1.484375 0 -2.34375 -0.8125q-0.859375 -0.8125 -0.859375 -2.046875q0 -0.828125 0.390625 -1.46875q0.390625 -0.640625 1.09375 -0.96875q0.703125 -0.34375 2.03125 -0.609375q1.796875 -0.328125 2.484375 -0.625l0 -0.25q0 -0.75 -0.359375 -1.0625q-0.359375 -0.3125 -1.375 -0.3125q-0.6875 0 -1.078125 0.28125q-0.375 0.265625 -0.609375 0.9375zm3.421875 2.078125q-0.484375 0.15625 -1.5625 0.390625q-1.0625 0.21875 -1.390625 0.4375q-0.5 0.359375 -0.5 0.90625q0 0.53125 0.40625 0.9375q0.40625 0.390625 1.015625 0.390625q0.703125 0 1.328125 -0.46875q0.46875 -0.34375 0.609375 -0.84375q0.09375 -0.328125 0.09375 -1.25l0 -0.5zm5.0476074 4.640625l0 -13.359375l2.5625 0l0 13.359375l-2.5625 0z" fill-rule="nonzero"/><path fill="#000000" fill-opacity="0.0" d="m761.7251 255.7398l0 0c0 -4.6097107 3.7369385 -8.346619 8.346619 -8.346619l172.18866 0c2.213684 0 4.33667 0.8793793 5.9019775 2.4446716c1.5652466 1.5652924 2.444641 3.6882935 2.444641 5.901947l0 33.385498c0 4.6097107 -3.7369385 8.346619 -8.346619 8.346619l-172.18866 0c-4.60968 0 -8.346619 -3.736908 -8.346619 -8.346619z" fill-rule="evenodd"/><path stroke="#351c75" stroke-width="1.0" stroke-linejoin="round" stroke-linecap="butt" d="m761.7251 255.7398l0 0c0 -4.6097107 3.7369385 -8.346619 8.346619 -8.346619l172.18866 0c2.213684 0 4.33667 0.8793793 5.9019775 2.4446716c1.5652466 1.5652924 2.444641 3.6882935 2.444641 5.901947l0 33.385498c0 4.6097107 -3.7369385 8.346619 -8.346619 8.346619l-172.18866 0c-4.60968 0 -8.346619 -3.736908 -8.346619 -8.346619z" fill-rule="evenodd"/><path fill="#351c75" d="m796.3412 279.35257l-2.5625 0l0 -4.9375q0 -1.5625 -0.171875 -2.015625q-0.15625 -0.46875 -0.53125 -0.71875q-0.359375 -0.265625 -0.875 -0.265625q-0.671875 0 -1.203125 0.375q-0.53125 0.359375 -0.734375 0.96875q-0.1875 0.59375 -0.1875 2.21875l0 4.375l-2.546875 0l0 -9.671875l2.375 0l0 1.421875q1.265625 -1.640625 3.1875 -1.640625q0.84375 0 1.546875 0.3125q0.703125 0.296875 1.0625 0.78125q0.359375 0.46875 0.5 1.078125q0.140625 0.59375 0.140625 1.703125l0 6.015625zm2.005371 -4.96875q0 -1.28125 0.625 -2.46875q0.625 -1.203125 1.78125 -1.828125q1.15625 -0.625 2.578125 -0.625q2.1875 0 3.59375 1.421875q1.40625 1.421875 1.40625 3.609375q0 2.1875 -1.421875 3.640625q-1.421875 1.4375 -3.5625 1.4375q-1.328125 0 -2.546875 -0.59375q-1.203125 -0.609375 -1.828125 -1.765625q-0.625 -1.171875 -0.625 -2.828125zm2.625 0.125q0 1.453125 0.671875 2.21875q0.6875 0.75 1.6875 0.75q1.0 0 1.671875 -0.75q0.6875 -0.765625 0.6875 -2.234375q0 -1.421875 -0.6875 -2.1875q-0.671875 -0.765625 -1.671875 -0.765625q-1.0 0 -1.6875 0.765625q-0.671875 0.765625 -0.671875 2.203125zm18.16156 4.84375l-2.5625 0l0 -4.9375q0 -1.5625 -0.171875 -2.015625q-0.15625 -0.46875 -0.53125 -0.71875q-0.359375 -0.265625 -0.875 -0.265625q-0.671875 0 -1.203125 0.375q-0.53125 0.359375 -0.734375 0.96875q-0.1875 0.59375 -0.1875 2.21875l0 4.375l-2.546875 0l0 -9.671875l2.375 0l0 1.421875q1.265625 -1.640625 3.1875 -1.640625q0.84375 0 1.546875 0.3125q0.703125 0.296875 1.0625 0.78125q0.359375 0.46875 0.5 1.078125q0.140625 0.59375 0.140625 1.703125l0 6.015625zm2.302246 -3.5625l0 -2.5625l5.03125 0l0 2.5625l-5.03125 0zm10.9470825 -6.109375l0 2.03125l-1.75 0l0 3.90625q0 1.1875 0.046875 1.390625q0.046875 0.1875 0.21875 0.3125q0.1875 0.125 0.4375 0.125q0.359375 0 1.03125 -0.25l0.21875 2.0q-0.890625 0.375 -2.015625 0.375q-0.703125 0 -1.265625 -0.234375q-0.546875 -0.234375 -0.8125 -0.59375q-0.25 -0.375 -0.34375 -1.0q-0.09375 -0.453125 -0.09375 -1.8125l0 -4.21875l-1.171875 0l0 -2.03125l1.171875 0l0 -1.921875l2.578125 -1.5l0 3.421875l1.75 0zm4.2282715 9.671875l-2.5625 0l0 -9.671875l2.375 0l0 1.375q0.609375 -0.984375 1.09375 -1.28125q0.484375 -0.3125 1.109375 -0.3125q0.875 0 1.6875 0.484375l-0.796875 2.234375q-0.640625 -0.421875 -1.203125 -0.421875q-0.53125 0 -0.90625 0.296875q-0.375 0.296875 -0.59375 1.078125q-0.203125 0.765625 -0.203125 3.234375l0 2.984375zm4.807129 -10.984375l0 -2.375l2.5625 0l0 2.375l-2.5625 0zm0 10.984375l0 -9.671875l2.5625 0l0 9.671875l-2.5625 0zm7.0895996 -6.71875l-2.328125 -0.421875q0.40625 -1.40625 1.359375 -2.078125q0.953125 -0.671875 2.84375 -0.671875q1.703125 0 2.546875 0.40625q0.84375 0.40625 1.171875 1.03125q0.34375 0.625 0.34375 2.28125l-0.015625 3.0q0 1.265625 0.109375 1.875q0.125 0.609375 0.46875 1.296875l-2.53125 0q-0.109375 -0.25 -0.25 -0.75q-0.0625 -0.234375 -0.09375 -0.3125q-0.65625 0.640625 -1.40625 0.96875q-0.734375 0.3125 -1.59375 0.3125q-1.484375 0 -2.34375 -0.8125q-0.859375 -0.8125 -0.859375 -2.046875q0 -0.828125 0.390625 -1.46875q0.390625 -0.640625 1.09375 -0.96875q0.703125 -0.34375 2.03125 -0.609375q1.796875 -0.328125 2.484375 -0.625l0 -0.25q0 -0.75 -0.359375 -1.0625q-0.359375 -0.3125 -1.375 -0.3125q-0.6875 0 -1.078125 0.28125q-0.375 0.265625 -0.609375 0.9375zm3.421875 2.078125q-0.484375 0.15625 -1.5625 0.390625q-1.0625 0.21875 -1.390625 0.4375q-0.5 0.359375 -0.5 0.90625q0 0.53125 0.40625 0.9375q0.40625 0.390625 1.015625 0.390625q0.703125 0 1.328125 -0.46875q0.46875 -0.34375 0.609375 -0.84375q0.09375 -0.328125 0.09375 -1.25l0 -0.5zm5.0475464 4.640625l0 -13.359375l2.5625 0l0 13.359375l-2.5625 0zm4.8864746 -3.5625l0 -2.5625l5.03125 0l0 2.5625l-5.03125 0zm6.4313965 -6.109375l2.390625 0l0 1.421875q0.46875 -0.734375 1.25 -1.1875q0.796875 -0.453125 1.765625 -0.453125q1.6875 0 2.859375 1.328125q1.171875 1.3125 1.171875 3.671875q0 2.421875 -1.1875 3.765625q-1.1875 1.34375 -2.859375 1.34375q-0.8125 0 -1.46875 -0.3125q-0.640625 -0.328125 -1.359375 -1.09375l0 4.875l-2.5625 0l0 -13.359375zm2.53125 4.671875q0 1.625 0.640625 2.40625q0.65625 0.78125 1.578125 0.78125q0.90625 0 1.484375 -0.71875q0.59375 -0.71875 0.59375 -2.34375q0 -1.515625 -0.609375 -2.25q-0.609375 -0.75 -1.515625 -0.75q-0.9375 0 -1.5625 0.734375q-0.609375 0.71875 -0.609375 2.140625zm10.849121 -1.71875l-2.328125 -0.421875q0.40625 -1.40625 1.359375 -2.078125q0.953125 -0.671875 2.84375 -0.671875q1.703125 0 2.546875 0.40625q0.84375 0.40625 1.171875 1.03125q0.34375 0.625 0.34375 2.28125l-0.015625 3.0q0 1.265625 0.109375 1.875q0.125 0.609375 0.46875 1.296875l-2.53125 0q-0.109375 -0.25 -0.25 -0.75q-0.0625 -0.234375 -0.09375 -0.3125q-0.65625 0.640625 -1.40625 0.96875q-0.734375 0.3125 -1.59375 0.3125q-1.484375 0 -2.34375 -0.8125q-0.859375 -0.8125 -0.859375 -2.046875q0 -0.828125 0.390625 -1.46875q0.390625 -0.640625 1.09375 -0.96875q0.703125 -0.34375 2.03125 -0.609375q1.796875 -0.328125 2.484375 -0.625l0 -0.25q0 -0.75 -0.359375 -1.0625q-0.359375 -0.3125 -1.375 -0.3125q-0.6875 0 -1.078125 0.28125q-0.375 0.265625 -0.609375 0.9375zm3.421875 2.078125q-0.484375 0.15625 -1.5625 0.390625q-1.0625 0.21875 -1.390625 0.4375q-0.5 0.359375 -0.5 0.90625q0 0.53125 0.40625 0.9375q0.40625 0.390625 1.015625 0.390625q0.703125 0 1.328125 -0.46875q0.46875 -0.34375 0.609375 -0.84375q0.09375 -0.328125 0.09375 -1.25l0 -0.5zm11.406982 4.640625l0 -1.453125q-0.53125 0.78125 -1.390625 1.234375q-0.859375 0.4375 -1.8125 0.4375q-0.96875 0 -1.75 -0.421875q-0.765625 -0.4375 -1.125 -1.203125q-0.34375 -0.78125 -0.34375 -2.140625l0 -6.125l2.5625 0l0 4.4375q0 2.046875 0.140625 2.515625q0.140625 0.453125 0.515625 0.71875q0.375 0.265625 0.953125 0.265625q0.65625 0 1.171875 -0.359375q0.515625 -0.359375 0.703125 -0.890625q0.203125 -0.53125 0.203125 -2.609375l0 -4.078125l2.546875 0l0 9.671875l-2.375 0zm13.47406 -6.8125l-2.53125 0.453125q-0.125 -0.75 -0.578125 -1.125q-0.453125 -0.390625 -1.171875 -0.390625q-0.953125 0 -1.53125 0.65625q-0.5625 0.65625 -0.5625 2.203125q0 1.734375 0.578125 2.4375q0.578125 0.703125 1.546875 0.703125q0.734375 0 1.203125 -0.40625q0.46875 -0.421875 0.65625 -1.421875l2.515625 0.421875q-0.390625 1.734375 -1.515625 2.625q-1.109375 0.875 -2.96875 0.875q-2.125 0 -3.390625 -1.328125q-1.25 -1.34375 -1.25 -3.71875q0 -2.390625 1.265625 -3.71875q1.265625 -1.34375 3.421875 -1.34375q1.765625 0 2.796875 0.765625q1.046875 0.75 1.515625 2.3125zm3.8444824 0.09375l-2.328125 -0.421875q0.40625 -1.40625 1.359375 -2.078125q0.953125 -0.671875 2.84375 -0.671875q1.703125 0 2.546875 0.40625q0.84375 0.40625 1.171875 1.03125q0.34375 0.625 0.34375 2.28125l-0.015625 3.0q0 1.265625 0.109375 1.875q0.125 0.609375 0.46875 1.296875l-2.53125 0q-0.109375 -0.25 -0.25 -0.75q-0.0625 -0.234375 -0.09375 -0.3125q-0.65625 0.640625 -1.40625 0.96875q-0.734375 0.3125 -1.59375 0.3125q-1.484375 0 -2.34375 -0.8125q-0.859375 -0.8125 -0.859375 -2.046875q0 -0.828125 0.390625 -1.46875q0.390625 -0.640625 1.09375 -0.96875q0.703125 -0.34375 2.03125 -0.609375q1.796875 -0.328125 2.484375 -0.625l0 -0.25q0 -0.75 -0.359375 -1.0625q-0.359375 -0.3125 -1.375 -0.3125q-0.6875 0 -1.078125 0.28125q-0.375 0.265625 -0.609375 0.9375zm3.421875 2.078125q-0.484375 0.15625 -1.5625 0.390625q-1.0625 0.21875 -1.390625 0.4375q-0.5 0.359375 -0.5 0.90625q0 0.53125 0.40625 0.9375q0.40625 0.390625 1.015625 0.390625q0.703125 0 1.328125 -0.46875q0.46875 -0.34375 0.609375 -0.84375q0.09375 -0.328125 0.09375 -1.25l0 -0.5zm5.0476074 4.640625l0 -13.359375l2.5625 0l0 13.359375l-2.5625 0z" fill-rule="nonzero"/><path fill="#000000" fill-opacity="0.0" d="m761.7251 103.30725l0 0c0 -4.6097107 3.7369385 -8.346619 8.346619 -8.346619l55.999695 0c2.213623 0 4.33667 0.87937164 5.9019165 2.444664c1.5653076 1.5653 2.4447021 3.6882935 2.4447021 5.9019547l0 33.385498c0 4.6097107 -3.7369385 8.346619 -8.346619 8.346619l-55.999695 0c-4.60968 0 -8.346619 -3.736908 -8.346619 -8.346619z" fill-rule="evenodd"/><path stroke="#85200c" stroke-width="1.0" stroke-linejoin="round" stroke-linecap="butt" d="m761.7251 103.30725l0 0c0 -4.6097107 3.7369385 -8.346619 8.346619 -8.346619l55.999695 0c2.213623 0 4.33667 0.87937164 5.9019165 2.444664c1.5653076 1.5653 2.4447021 3.6882935 2.4447021 5.9019547l0 33.385498c0 4.6097107 -3.7369385 8.346619 -8.346619 8.346619l-55.999695 0c-4.60968 0 -8.346619 -3.736908 -8.346619 -8.346619z" fill-rule="evenodd"/><path fill="#85200c" d="m786.7452 117.24812l0 2.03125l-1.75 0l0 3.90625q0 1.1875 0.046875 1.390625q0.046875 0.1875 0.21875 0.3125q0.1875 0.125 0.4375 0.125q0.359375 0 1.03125 -0.25l0.21875 2.0q-0.890625 0.375 -2.015625 0.375q-0.703125 0 -1.265625 -0.234375q-0.546875 -0.234375 -0.8125 -0.59375q-0.25 -0.375 -0.34375 -1.0q-0.09375 -0.453125 -0.09375 -1.8125l0 -4.21875l-1.171875 0l0 -2.03125l1.171875 0l0 -1.921875l2.578125 -1.5l0 3.421875l1.75 0zm4.2282715 9.671875l-2.5625 0l0 -9.671875l2.375 0l0 1.375q0.609375 -0.984375 1.09375 -1.28125q0.484375 -0.3125 1.109375 -0.3125q0.875 0 1.6875 0.484375l-0.796875 2.234375q-0.640625 -0.421875 -1.203125 -0.421875q-0.53125 0 -0.90625 0.296875q-0.375 0.296875 -0.59375 1.078125q-0.203125 0.765625 -0.203125 3.234375l0 2.984375zm4.80719 -10.984375l0 -2.375l2.5625 0l0 2.375l-2.5625 0zm0 10.984375l0 -9.671875l2.5625 0l0 9.671875l-2.5625 0zm7.0895386 -6.71875l-2.328125 -0.421875q0.40625 -1.40625 1.359375 -2.078125q0.953125 -0.671875 2.84375 -0.671875q1.703125 0 2.546875 0.40625q0.84375 0.40625 1.171875 1.03125q0.34375 0.625 0.34375 2.28125l-0.015625 3.0q0 1.265625 0.109375 1.875q0.125 0.609375 0.46875 1.296875l-2.53125 0q-0.109375 -0.25 -0.25 -0.75q-0.0625 -0.234375 -0.09375 -0.3125q-0.65625 0.640625 -1.40625 0.96875q-0.734375 0.3125 -1.59375 0.3125q-1.484375 0 -2.34375 -0.8125q-0.859375 -0.8125 -0.859375 -2.046875q0 -0.828125 0.390625 -1.46875q0.390625 -0.640625 1.09375 -0.96875q0.703125 -0.34375 2.03125 -0.609375q1.796875 -0.328125 2.484375 -0.625l0 -0.25q0 -0.75 -0.359375 -1.0625q-0.359375 -0.3125 -1.375 -0.3125q-0.6875 0 -1.078125 0.28125q-0.375 0.265625 -0.609375 0.9375zm3.421875 2.078125q-0.484375 0.15625 -1.5625 0.390625q-1.0625 0.21875 -1.390625 0.4375q-0.5 0.359375 -0.5 0.90625q0 0.53125 0.40625 0.9375q0.40625 0.390625 1.015625 0.390625q0.703125 0 1.328125 -0.46875q0.46875 -0.34375 0.609375 -0.84375q0.09375 -0.328125 0.09375 -1.25l0 -0.5zm5.0476074 4.640625l0 -13.359375l2.5625 0l0 13.359375l-2.5625 0z" fill-rule="nonzero"/><path fill="#000000" fill-opacity="0.0" d="m727.0818 189.04149l34.64569 -69.039375" fill-rule="evenodd"/><path stroke="#85200c" stroke-width="1.0" stroke-linejoin="round" stroke-linecap="butt" d="m727.0818 189.04149l31.954529 -63.676727" fill-rule="evenodd"/><path fill="#85200c" stroke="#85200c" stroke-width="1.0" stroke-linecap="butt" d="m760.51263 126.10558l0.55914307 -4.7968597l-3.5117188 3.3152008z" fill-rule="evenodd"/><path fill="#000000" fill-opacity="0.0" d="m727.0818 189.04149l34.64569 83.401566" fill-rule="evenodd"/><path stroke="#741b47" stroke-width="1.0" stroke-linejoin="round" stroke-linecap="butt" d="m727.0818 189.04149l32.343872 77.86064" fill-rule="evenodd"/><path fill="#741b47" stroke="#741b47" stroke-width="1.0" stroke-linecap="butt" d="m757.9003 267.53577l3.2662964 3.557251l-0.21557617 -4.8245544z" fill-rule="evenodd"/><path fill="#000000" fill-opacity="0.0" d="m492.64633 272.43225l269.07083 0" fill-rule="evenodd"/><path stroke="#351c75" stroke-width="1.0" stroke-linejoin="round" stroke-linecap="butt" d="m492.64633 272.43225l263.07083 0" fill-rule="evenodd"/><path fill="#351c75" stroke="#351c75" stroke-width="1.0" stroke-linecap="butt" d="m755.71716 274.08398l4.538147 -1.6517334l-4.538147 -1.6517334z" fill-rule="evenodd"/></g></svg>