<svg version="1.1" viewBox="0.0 0.0 960.0 480.0" fill="none" stroke="none" stroke-linecap="square" stroke-miterlimit="10" xmlns:xlink="http://www.w3.org/1999/xlink" xmlns="http://www.w3.org/2000/svg"><clipPath id="g2ae73f490b8_1_712.0"><path d="m0 0l960.0 0l0 480.0l-960.0 0l0 -480.0z" clip-rule="nonzero"/></clipPath><g clip-path="url(#g2ae73f490b8_1_712.0)"><path fill="#ffffff" d="m0 0l960.0 0l0 480.0l-960.0 0z" fill-rule="evenodd"/><path fill="#000000" fill-opacity="0.0" d="m672.16534 30.375496l0 0c0 -4.6097145 3.7369385 -8.346624 8.346619 -8.346624l146.99182 0c2.213623 0 4.33667 0.87937355 5.9019165 2.4446697c1.5653076 1.5652943 2.4447021 3.6882915 2.4447021 5.9019547l0 33.38549c0 4.6097183 -3.7369385 8.346626 -8.346619 8.346626l-146.99182 0c-4.60968 0 -8.346619 -3.736908 -8.346619 -8.346626z" fill-rule="evenodd"/><path stroke="#38761d" stroke-width="1.0" stroke-linejoin="round" stroke-linecap="butt" d="m672.16534 30.375496l0 0c0 -4.6097145 3.7369385 -8.346624 8.346619 -8.346624l146.99182 0c2.213623 0 4.33667 0.87937355 5.9019165 2.4446697c1.5653076 1.5652943 2.4447021 3.6882915 2.4447021 5.9019547l0 33.38549c0 4.6097183 -3.7369385 8.346626 -8.346619 8.346626l-146.99182 0c-4.60968 0 -8.346619 -3.736908 -8.346619 -8.346626z" fill-rule="evenodd"/><path fill="#38761d" d="m692.0006 54.54824l-2.921875 0l0 -11.03125q-1.609375 1.5 -3.78125 2.21875l0 -2.65625q1.140625 -0.375 2.484375 -1.421875q1.34375 -1.046875 1.84375 -2.4375l2.375 0l0 15.328125zm3.9710693 -3.15625l2.9375 -0.453125q0.1875 0.859375 0.75 1.3125q0.578125 0.4375 1.609375 0.4375q1.140625 0 1.71875 -0.421875q0.375 -0.296875 0.375 -0.78125q0 -0.328125 -0.203125 -0.546875q-0.21875 -0.21875 -0.984375 -0.390625q-3.53125 -0.78125 -4.484375 -1.421875q-1.3125 -0.90625 -1.3125 -2.5q0 -1.4375 1.125 -2.40625q1.140625 -0.984375 3.53125 -0.984375q2.265625 0 3.375 0.75q1.109375 0.734375 1.515625 2.171875l-2.75 0.515625q-0.1875 -0.640625 -0.6875 -0.984375q-0.484375 -0.34375 -1.40625 -0.34375q-1.15625 0 -1.65625 0.3125q-0.328125 0.234375 -0.328125 0.59375q0 0.3125 0.296875 0.53125q0.390625 0.296875 2.71875 0.828125q2.34375 0.53125 3.28125 1.296875q0.90625 0.78125 0.90625 2.1875q0 1.515625 -1.265625 2.609375q-1.265625 1.09375 -3.765625 1.09375q-2.25 0 -3.578125 -0.90625q-1.3125 -0.921875 -1.71875 -2.5zm17.97107 -7.90625l0 2.328125l-2.0 0l0 4.46875q0 1.34375 0.046875 1.578125q0.0625 0.21875 0.265625 0.375q0.203125 0.140625 0.5 0.140625q0.40625 0 1.171875 -0.28125l0.25 2.265625q-1.015625 0.4375 -2.3125 0.4375q-0.796875 0 -1.4375 -0.265625q-0.625 -0.265625 -0.921875 -0.6875q-0.296875 -0.421875 -0.40625 -1.140625q-0.09375 -0.515625 -0.09375 -2.0625l0 -4.828125l-1.34375 0l0 -2.328125l1.34375 0l0 -2.1875l2.9375 -1.71875l0 3.90625l2.0 0zm1.680542 6.984375l0 -2.921875l5.75 0l0 2.921875l-5.75 0zm7.446228 -8.484375l0 -2.703125l2.921875 0l0 2.703125l-2.921875 0zm0 12.5625l0 -11.0625l2.921875 0l0 11.0625l-2.921875 0zm15.988098 0l-2.921875 0l0 -5.640625q0 -1.796875 -0.1875 -2.3125q-0.1875 -0.53125 -0.609375 -0.828125q-0.421875 -0.296875 -1.015625 -0.296875q-0.765625 0 -1.375 0.421875q-0.59375 0.421875 -0.828125 1.109375q-0.21875 0.6875 -0.21875 2.53125l0 5.015625l-2.921875 0l0 -11.0625l2.71875 0l0 1.625q1.4375 -1.875 3.640625 -1.875q0.96875 0 1.765625 0.359375q0.8125 0.34375 1.21875 0.890625q0.40625 0.53125 0.5625 1.21875q0.171875 0.6875 0.171875 1.96875l0 6.875zm12.606201 -7.796875l-2.875 0.53125q-0.15625 -0.875 -0.671875 -1.3125q-0.515625 -0.4375 -1.328125 -0.4375q-1.09375 0 -1.75 0.765625q-0.65625 0.75 -0.65625 2.515625q0 1.96875 0.65625 2.78125q0.671875 0.8125 1.78125 0.8125q0.84375 0 1.375 -0.46875q0.53125 -0.46875 0.75 -1.625l2.859375 0.484375q-0.4375 1.984375 -1.71875 3.0q-1.265625 1.0 -3.390625 1.0q-2.4375 0 -3.875 -1.53125q-1.4375 -1.53125 -1.4375 -4.234375q0 -2.75 1.4375 -4.265625q1.453125 -1.53125 3.921875 -1.53125q2.015625 0 3.203125 0.875q1.203125 0.859375 1.71875 2.640625zm2.2210693 7.796875l0 -15.265625l2.921875 0l0 15.265625l-2.921875 0zm13.206909 0l0 -1.65625q-0.609375 0.890625 -1.59375 1.40625q-0.984375 0.5 -2.078125 0.5q-1.109375 0 -2.0 -0.484375q-0.875 -0.5 -1.28125 -1.375q-0.390625 -0.890625 -0.390625 -2.453125l0 -7.0l2.921875 0l0 5.078125q0 2.34375 0.15625 2.875q0.171875 0.515625 0.59375 0.828125q0.4375 0.296875 1.09375 0.296875q0.75 0 1.34375 -0.40625q0.59375 -0.40625 0.8125 -1.015625q0.21875 -0.609375 0.21875 -2.984375l0 -4.671875l2.921875 0l0 11.0625l-2.71875 0zm4.715576 -3.15625l2.9375 -0.453125q0.1875 0.859375 0.75 1.3125q0.578125 0.4375 1.609375 0.4375q1.140625 0 1.71875 -0.421875q0.375 -0.296875 0.375 -0.78125q0 -0.328125 -0.203125 -0.546875q-0.21875 -0.21875 -0.984375 -0.390625q-3.53125 -0.78125 -4.484375 -1.421875q-1.3125 -0.90625 -1.3125 -2.5q0 -1.4375 1.125 -2.40625q1.140625 -0.984375 3.53125 -0.984375q2.265625 0 3.375 0.75q1.109375 0.734375 1.515625 2.171875l-2.75 0.515625q-0.1875 -0.640625 -0.6875 -0.984375q-0.484375 -0.34375 -1.40625 -0.34375q-1.15625 0 -1.65625 0.3125q-0.328125 0.234375 -0.328125 0.59375q0 0.3125 0.296875 0.53125q0.390625 0.296875 2.71875 0.828125q2.34375 0.53125 3.28125 1.296875q0.90625 0.78125 0.90625 2.1875q0 1.515625 -1.265625 2.609375q-1.265625 1.09375 -3.765625 1.09375q-2.25 0 -3.578125 -0.90625q-1.3125 -0.921875 -1.71875 -2.5zm12.892944 -9.40625l0 -2.703125l2.921875 0l0 2.703125l-2.921875 0zm0 12.5625l0 -11.0625l2.921875 0l0 11.0625l-2.921875 0zm8.972534 0l-4.46875 -11.0625l3.078125 0l2.078125 5.640625l0.609375 1.890625q0.234375 -0.71875 0.296875 -0.953125q0.15625 -0.46875 0.3125 -0.9375l2.109375 -5.640625l3.0 0l-4.390625 11.0625l-2.625 0zm15.221069 -3.515625l2.90625 0.484375q-0.546875 1.609375 -1.765625 2.453125q-1.21875 0.828125 -3.03125 0.828125q-2.890625 0 -4.28125 -1.890625q-1.09375 -1.5 -1.09375 -3.8125q0 -2.75 1.4375 -4.296875q1.4375 -1.5625 3.640625 -1.5625q2.46875 0 3.890625 1.640625q1.421875 1.625 1.359375 4.984375l-7.328125 0q0.03125 1.296875 0.703125 2.03125q0.6875 0.71875 1.703125 0.71875q0.6875 0 1.15625 -0.375q0.46875 -0.375 0.703125 -1.203125zm0.171875 -2.96875q-0.03125 -1.265625 -0.65625 -1.921875q-0.625 -0.671875 -1.53125 -0.671875q-0.953125 0 -1.578125 0.703125q-0.625 0.703125 -0.609375 1.890625l4.375 0z" fill-rule="nonzero"/><path fill="#000000" fill-opacity="0.0" d="m245.0979 295.53983l0 0c0 -3.728363 3.0224457 -6.7507935 6.7507935 -6.7507935l99.25433 0c1.7904053 0 3.5075073 0.7112427 4.773529 1.9772644c1.2660217 1.2659912 1.9772644 2.9830933 1.9772644 4.773529l0 27.00235c0 3.728363 -3.0224304 6.7507935 -6.7507935 6.7507935l-99.25433 0c-3.7283478 0 -6.7507935 -3.0224304 -6.7507935 -6.7507935z" fill-rule="evenodd"/><path stroke="#674ea7" stroke-width="1.0" stroke-linejoin="round" stroke-linecap="butt" d="m245.0979 295.53983l0 0c0 -3.728363 3.0224457 -6.7507935 6.7507935 -6.7507935l99.25433 0c1.7904053 0 3.5075073 0.7112427 4.773529 1.9772644c1.2660217 1.2659912 1.9772644 2.9830933 1.9772644 4.773529l0 27.00235c0 3.728363 -3.0224304 6.7507935 -6.7507935 6.7507935l-99.25433 0c-3.7283478 0 -6.7507935 -3.0224304 -6.7507935 -6.7507935z" fill-rule="evenodd"/><path fill="#351c75" d="m267.66888 316.521l-2.921875 0l0 -5.640625q0 -1.796875 -0.1875 -2.3125q-0.1875 -0.53125 -0.609375 -0.828125q-0.421875 -0.296875 -1.015625 -0.296875q-0.765625 0 -1.375 0.421875q-0.59375 0.421875 -0.828125 1.109375q-0.21875 0.6875 -0.21875 2.53125l0 5.015625l-2.921875 0l0 -11.0625l2.71875 0l0 1.625q1.4375 -1.875 3.640625 -1.875q0.96875 0 1.765625 0.359375q0.8125 0.34375 1.21875 0.890625q0.40625 0.53125 0.5625 1.21875q0.171875 0.6875 0.171875 1.96875l0 6.875zm2.2937012 -5.6875q0 -1.453125 0.71875 -2.8125q0.71875 -1.375 2.03125 -2.09375q1.3125 -0.71875 2.9375 -0.71875q2.515625 0 4.109375 1.640625q1.609375 1.625 1.609375 4.109375q0 2.515625 -1.625 4.171875q-1.609375 1.640625 -4.0625 1.640625q-1.53125 0 -2.90625 -0.6875q-1.375 -0.6875 -2.09375 -2.015625q-0.71875 -1.328125 -0.71875 -3.234375zm3.0 0.15625q0 1.640625 0.78125 2.515625q0.78125 0.875 1.921875 0.875q1.140625 0 1.921875 -0.875q0.78125 -0.875 0.78125 -2.53125q0 -1.625 -0.78125 -2.5q-0.78125 -0.875 -1.921875 -0.875q-1.140625 0 -1.921875 0.875q-0.78125 0.875 -0.78125 2.515625zm20.762451 5.53125l-2.921875 0l0 -5.640625q0 -1.796875 -0.1875 -2.3125q-0.1875 -0.53125 -0.609375 -0.828125q-0.421875 -0.296875 -1.015625 -0.296875q-0.765625 0 -1.375 0.421875q-0.59375 0.421875 -0.828125 1.109375q-0.21875 0.6875 -0.21875 2.53125l0 5.015625l-2.921875 0l0 -11.0625l2.71875 0l0 1.625q1.4375 -1.875 3.640625 -1.875q0.96875 0 1.765625 0.359375q0.8125 0.34375 1.21875 0.890625q0.40625 0.53125 0.5625 1.21875q0.171875 0.6875 0.171875 1.96875l0 6.875zm2.6218262 -4.078125l0 -2.921875l5.75 0l0 2.921875l-5.75 0zm14.3055725 4.078125l-2.921875 0l0 -11.03125q-1.609375 1.5 -3.78125 2.21875l0 -2.65625q1.140625 -0.375 2.484375 -1.421875q1.34375 -1.046875 1.84375 -2.4375l2.375 0l0 15.328125zm3.9710693 -3.15625l2.9375 -0.453125q0.1875 0.859375 0.75 1.3125q0.578125 0.4375 1.609375 0.4375q1.140625 0 1.71875 -0.421875q0.375 -0.296875 0.375 -0.78125q0 -0.328125 -0.203125 -0.546875q-0.21875 -0.21875 -0.984375 -0.390625q-3.53125 -0.78125 -4.484375 -1.421875q-1.3125 -0.90625 -1.3125 -2.5q0 -1.4375 1.125 -2.40625q1.140625 -0.984375 3.53125 -0.984375q2.265625 0 3.375 0.75q1.109375 0.734375 1.515625 2.171875l-2.75 0.515625q-0.1875 -0.640625 -0.6875 -0.984375q-0.484375 -0.34375 -1.40625 -0.34375q-1.15625 0 -1.65625 0.3125q-0.328125 0.234375 -0.328125 0.59375q0 0.3125 0.296875 0.53125q0.390625 0.296875 2.71875 0.828125q2.34375 0.53125 3.28125 1.296875q0.90625 0.78125 0.90625 2.1875q0 1.515625 -1.265625 2.609375q-1.265625 1.09375 -3.765625 1.09375q-2.25 0 -3.578125 -0.90625q-1.3125 -0.921875 -1.71875 -2.5zm17.97107 -7.90625l0 2.328125l-2.0 0l0 4.46875q0 1.34375 0.046875 1.578125q0.0625 0.21875 0.265625 0.375q0.203125 0.140625 0.5 0.140625q0.40625 0 1.171875 -0.28125l0.25 2.265625q-1.015625 0.4375 -2.3125 0.4375q-0.796875 0 -1.4375 -0.265625q-0.625 -0.265625 -0.921875 -0.6875q-0.296875 -0.421875 -0.40625 -1.140625q-0.09375 -0.515625 -0.09375 -2.0625l0 -4.828125l-1.34375 0l0 -2.328125l1.34375 0l0 -2.1875l2.9375 -1.71875l0 3.90625l2.0 0z" fill-rule="nonzero"/><path fill="#000000" fill-opacity="0.0" d="m447.30185 228.6167l0 0c0 -1.8731995 1.5185242 -3.3917236 3.3917236 -3.3917236l61.626007 0c0.89953613 0 1.762207 0.35733032 2.3983154 0.9934082c0.63604736 0.6360779 0.9934082 1.498764 0.9934082 2.3983154l0 26.129929c0 1.8732147 -1.5185547 3.391739 -3.3917236 3.391739l-61.626007 0c-1.8731995 0 -3.3917236 -1.5185242 -3.3917236 -3.391739z" fill-rule="evenodd"/><path stroke="#674ea7" stroke-width="1.0" stroke-linejoin="round" stroke-linecap="butt" d="m447.30185 228.6167l0 0c0 -1.8731995 1.5185242 -3.3917236 3.3917236 -3.3917236l61.626007 0c0.89953613 0 1.762207 0.35733032 2.3983154 0.9934082c0.63604736 0.6360779 0.9934082 1.498764 0.9934082 2.3983154l0 26.129929c0 1.8732147 -1.5185547 3.391739 -3.3917236 3.391739l-61.626007 0c-1.8731995 0 -3.3917236 -1.5185242 -3.3917236 -3.391739z" fill-rule="evenodd"/><path fill="#351c75" d="m476.5287 246.44292l0 2.71875l-10.25 0q0.171875 -1.546875 1.0 -2.921875q0.828125 -1.375 3.296875 -3.65625q1.96875 -1.84375 2.421875 -2.5q0.609375 -0.90625 0.609375 -1.796875q0 -0.96875 -0.53125 -1.5q-0.53125 -0.53125 -1.453125 -0.53125q-0.921875 0 -1.46875 0.5625q-0.53125 0.546875 -0.609375 1.828125l-2.921875 -0.296875q0.265625 -2.40625 1.640625 -3.453125q1.375 -1.0625 3.4375 -1.0625q2.25 0 3.53125 1.21875q1.296875 1.21875 1.296875 3.03125q0 1.03125 -0.375 1.96875q-0.359375 0.921875 -1.15625 1.9375q-0.53125 0.6875 -1.921875 1.953125q-1.375 1.265625 -1.75 1.6875q-0.375 0.421875 -0.59375 0.8125l5.796875 0zm12.674194 2.71875l-2.921875 0l0 -5.640625q0 -1.796875 -0.1875 -2.3125q-0.1875 -0.53125 -0.609375 -0.828125q-0.421875 -0.296875 -1.015625 -0.296875q-0.765625 0 -1.375 0.421875q-0.59375 0.421875 -0.828125 1.109375q-0.21875 0.6875 -0.21875 2.53125l0 5.015625l-2.921875 0l0 -11.0625l2.71875 0l0 1.625q1.4375 -1.875 3.640625 -1.875q0.96875 0 1.765625 0.359375q0.8125 0.34375 1.21875 0.890625q0.40625 0.53125 0.5625 1.21875q0.171875 0.6875 0.171875 1.96875l0 6.875zm13.106201 0l-2.71875 0l0 -1.625q-0.671875 0.953125 -1.59375 1.421875q-0.921875 0.453125 -1.859375 0.453125q-1.90625 0 -3.265625 -1.53125q-1.359375 -1.546875 -1.359375 -4.296875q0 -2.8125 1.3125 -4.265625q1.328125 -1.46875 3.359375 -1.46875q1.84375 0 3.203125 1.546875l0 -5.5l2.921875 0l0 15.265625zm-7.8125 -5.765625q0 1.765625 0.5 2.5625q0.703125 1.140625 1.96875 1.140625q1.015625 0 1.71875 -0.859375q0.71875 -0.859375 0.71875 -2.5625q0 -1.90625 -0.6875 -2.75q-0.6875 -0.84375 -1.765625 -0.84375q-1.046875 0 -1.75 0.828125q-0.703125 0.828125 -0.703125 2.484375z" fill-rule="nonzero"/><path fill="#000000" fill-opacity="0.0" d="m357.85382 309.041l89.44882 -67.37007" fill-rule="evenodd"/><path stroke="#741b47" stroke-width="1.0" stroke-linejoin="round" stroke-linecap="butt" d="m357.8538 309.041l84.65613 -63.760376" fill-rule="evenodd"/><path fill="#741b47" stroke="#741b47" stroke-width="1.0" stroke-linecap="butt" d="m443.50363 246.6l2.631256 -4.049591l-4.618683 1.4108276z" fill-rule="evenodd"/><path fill="#000000" fill-opacity="0.0" d="m357.85382 309.041l89.44882 83.40158" fill-rule="evenodd"/><path stroke="#1c4587" stroke-width="1.0" stroke-linejoin="round" stroke-linecap="butt" d="m357.8538 309.041l85.060455 79.309906" fill-rule="evenodd"/><path fill="#1c4587" stroke="#1c4587" stroke-width="1.0" stroke-linecap="butt" d="m441.78784 389.55896l4.4455566 1.8866882l-2.1927795 -4.3028564z" fill-rule="evenodd"/><path fill="#000000" fill-opacity="0.0" d="m447.30185 379.3681l0 0c0 -1.873169 1.5185242 -3.3917236 3.3917236 -3.3917236l61.626007 0c0.89953613 0 1.762207 0.35736084 2.3983154 0.9934387c0.63604736 0.63604736 0.9934082 1.4987488 0.9934082 2.398285l0 26.129944c0 1.8731995 -1.5185547 3.3917236 -3.3917236 3.3917236l-61.626007 0c-1.8731995 0 -3.3917236 -1.5185242 -3.3917236 -3.3917236z" fill-rule="evenodd"/><path stroke="#674ea7" stroke-width="1.0" stroke-linejoin="round" stroke-linecap="butt" d="m447.30185 379.3681l0 0c0 -1.873169 1.5185242 -3.3917236 3.3917236 -3.3917236l61.626007 0c0.89953613 0 1.762207 0.35736084 2.3983154 0.9934387c0.63604736 0.63604736 0.9934082 1.4987488 0.9934082 2.398285l0 26.129944c0 1.8731995 -1.5185547 3.3917236 -3.3917236 3.3917236l-61.626007 0c-1.8731995 0 -3.3917236 -1.5185242 -3.3917236 -3.3917236z" fill-rule="evenodd"/><path fill="#351c75" d="m469.29858 395.8662l2.84375 -0.34375q0.125 1.078125 0.71875 1.65625q0.59375 0.5625 1.4375 0.5625q0.90625 0 1.53125 -0.6875q0.625 -0.6875 0.625 -1.84375q0 -1.109375 -0.59375 -1.75q-0.59375 -0.65625 -1.453125 -0.65625q-0.5625 0 -1.34375 0.21875l0.328125 -2.375q1.1875 0.03125 1.8125 -0.515625q0.625 -0.546875 0.625 -1.453125q0 -0.765625 -0.46875 -1.21875q-0.453125 -0.46875 -1.21875 -0.46875q-0.75 0 -1.28125 0.53125q-0.53125 0.515625 -0.640625 1.515625l-2.703125 -0.46875q0.28125 -1.375 0.84375 -2.203125q0.578125 -0.828125 1.59375 -1.296875q1.015625 -0.484375 2.28125 -0.484375q2.15625 0 3.453125 1.375q1.078125 1.125 1.078125 2.546875q0 2.0 -2.203125 3.203125q1.3125 0.28125 2.09375 1.265625q0.78125 0.96875 0.78125 2.359375q0 2.0 -1.46875 3.421875q-1.453125 1.421875 -3.640625 1.421875q-2.078125 0 -3.453125 -1.1875q-1.359375 -1.203125 -1.578125 -3.125zm15.392944 4.046875l-2.921875 0l0 -11.0625l2.71875 0l0 1.578125q0.703125 -1.125 1.25 -1.46875q0.5625 -0.359375 1.265625 -0.359375q1.0 0 1.9375 0.5625l-0.90625 2.546875q-0.75 -0.484375 -1.375 -0.484375q-0.625 0 -1.046875 0.34375q-0.421875 0.328125 -0.671875 1.21875q-0.25 0.890625 -0.25 3.703125l0 3.421875zm15.643829 0l-2.71875 0l0 -1.625q-0.671875 0.953125 -1.59375 1.421875q-0.921875 0.453125 -1.859375 0.453125q-1.90625 0 -3.265625 -1.53125q-1.359375 -1.546875 -1.359375 -4.296875q0 -2.8125 1.3125 -4.265625q1.328125 -1.46875 3.359375 -1.46875q1.84375 0 3.203125 1.546875l0 -5.5l2.921875 0l0 15.265625zm-7.8125 -5.765625q0 1.765625 0.5 2.5625q0.703125 1.140625 1.96875 1.140625q1.015625 0 1.71875 -0.859375q0.71875 -0.859375 0.71875 -2.5625q0 -1.90625 -0.6875 -2.75q-0.6875 -0.84375 -1.765625 -0.84375q-1.046875 0 -1.75 0.828125q-0.703125 0.828125 -0.703125 2.484375z" fill-rule="nonzero"/><path fill="#000000" fill-opacity="0.0" d="m245.0979 309.041l-82.45668 -69.03937" fill-rule="evenodd"/><path stroke="#674ea7" stroke-width="1.0" stroke-linejoin="round" stroke-linecap="butt" d="m245.0979 309.041l-82.45668 -69.03937" fill-rule="evenodd"/><path fill="#000000" fill-opacity="0.0" d="m245.09448 157.45815l0 0c0 -3.728363 3.0224304 -6.7507935 6.7507935 -6.7507935l101.144104 0c1.7904053 0 3.5075073 0.7112427 4.773529 1.9772644c1.2660217 1.2660065 1.9772339 2.9831085 1.9772339 4.773529l0 27.00235c0 3.728363 -3.0224304 6.7507935 -6.750763 6.7507935l-101.144104 0c-3.728363 0 -6.7507935 -3.0224304 -6.7507935 -6.7507935z" fill-rule="evenodd"/><path stroke="#38761d" stroke-width="1.0" stroke-linejoin="round" stroke-linecap="butt" d="m245.09448 157.45815l0 0c0 -3.728363 3.0224304 -6.7507935 6.7507935 -6.7507935l101.144104 0c1.7904053 0 3.5075073 0.7112427 4.773529 1.9772644c1.2660217 1.2660065 1.9772339 2.9831085 1.9772339 4.773529l0 27.00235c0 3.728363 -3.0224304 6.7507935 -6.750763 6.7507935l-101.144104 0c-3.728363 0 -6.7507935 -3.0224304 -6.7507935 -6.7507935z" fill-rule="evenodd"/><path fill="#38761d" d="m274.3228 178.43932l-2.921875 0l0 -5.640625q0 -1.796875 -0.1875 -2.3125q-0.1875 -0.53125 -0.609375 -0.828125q-0.421875 -0.296875 -1.015625 -0.296875q-0.765625 0 -1.375 0.421875q-0.59375 0.421875 -0.828125 1.109375q-0.21875 0.6875 -0.21875 2.53125l0 5.015625l-2.921875 0l0 -11.0625l2.71875 0l0 1.625q1.4375 -1.875 3.640625 -1.875q0.96875 0 1.765625 0.359375q0.8125 0.34375 1.21875 0.890625q0.40625 0.53125 0.5625 1.21875q0.171875 0.6875 0.171875 1.96875l0 6.875zm2.2937012 -5.6875q0 -1.453125 0.71875 -2.8125q0.71875 -1.375 2.03125 -2.09375q1.3125 -0.71875 2.9375 -0.71875q2.515625 0 4.109375 1.640625q1.609375 1.625 1.609375 4.109375q0 2.515625 -1.625 4.171875q-1.609375 1.640625 -4.0625 1.640625q-1.53125 0 -2.90625 -0.6875q-1.375 -0.6875 -2.09375 -2.015625q-0.71875 -1.328125 -0.71875 -3.234375zm3.0 0.15625q0 1.640625 0.78125 2.515625q0.78125 0.875 1.921875 0.875q1.140625 0 1.921875 -0.875q0.78125 -0.875 0.78125 -2.53125q0 -1.625 -0.78125 -2.5q-0.78125 -0.875 -1.921875 -0.875q-1.140625 0 -1.921875 0.875q-0.78125 0.875 -0.78125 2.515625zm20.762451 5.53125l-2.921875 0l0 -5.640625q0 -1.796875 -0.1875 -2.3125q-0.1875 -0.53125 -0.609375 -0.828125q-0.421875 -0.296875 -1.015625 -0.296875q-0.765625 0 -1.375 0.421875q-0.59375 0.421875 -0.828125 1.109375q-0.21875 0.6875 -0.21875 2.53125l0 5.015625l-2.921875 0l0 -11.0625l2.71875 0l0 1.625q1.4375 -1.875 3.640625 -1.875q0.96875 0 1.765625 0.359375q0.8125 0.34375 1.21875 0.890625q0.40625 0.53125 0.5625 1.21875q0.171875 0.6875 0.171875 1.96875l0 6.875zm2.6218262 -4.078125l0 -2.921875l5.75 0l0 2.921875l-5.75 0zm6.7118225 0.03125l2.84375 -0.34375q0.125 1.078125 0.71875 1.65625q0.59375 0.5625 1.4375 0.5625q0.90625 0 1.53125 -0.6875q0.625 -0.6875 0.625 -1.84375q0 -1.109375 -0.59375 -1.75q-0.59375 -0.65625 -1.453125 -0.65625q-0.5625 0 -1.34375 0.21875l0.328125 -2.375q1.1875 0.03125 1.8125 -0.515625q0.625 -0.546875 0.625 -1.453125q0 -0.765625 -0.46875 -1.21875q-0.453125 -0.46875 -1.21875 -0.46875q-0.75 0 -1.28125 0.53125q-0.53125 0.515625 -0.640625 1.515625l-2.703125 -0.46875q0.28125 -1.375 0.84375 -2.203125q0.578125 -0.828125 1.59375 -1.296875q1.015625 -0.484375 2.28125 -0.484375q2.15625 0 3.453125 1.375q1.078125 1.125 1.078125 2.546875q0 2.0 -2.203125 3.203125q1.3125 0.28125 2.09375 1.265625q0.78125 0.96875 0.78125 2.359375q0 2.0 -1.46875 3.421875q-1.453125 1.421875 -3.640625 1.421875q-2.078125 0 -3.453125 -1.1875q-1.359375 -1.203125 -1.578125 -3.125zm15.392944 4.046875l-2.921875 0l0 -11.0625l2.71875 0l0 1.578125q0.703125 -1.125 1.25 -1.46875q0.5625 -0.359375 1.265625 -0.359375q1.0 0 1.9375 0.5625l-0.90625 2.546875q-0.75 -0.484375 -1.375 -0.484375q-0.625 0 -1.046875 0.34375q-0.421875 0.328125 -0.671875 1.21875q-0.25 0.890625 -0.25 3.703125l0 3.421875zm15.643799 0l-2.71875 0l0 -1.625q-0.671875 0.953125 -1.59375 1.421875q-0.921875 0.453125 -1.859375 0.453125q-1.90625 0 -3.265625 -1.53125q-1.359375 -1.546875 -1.359375 -4.296875q0 -2.8125 1.3125 -4.265625q1.328125 -1.46875 3.359375 -1.46875q1.84375 0 3.203125 1.546875l0 -5.5l2.921875 0l0 15.265625zm-7.8125 -5.765625q0 1.765625 0.5 2.5625q0.703125 1.140625 1.96875 1.140625q1.015625 0 1.71875 -0.859375q0.71875 -0.859375 0.71875 -2.5625q0 -1.90625 -0.6875 -2.75q-0.6875 -0.84375 -1.765625 -0.84375q-1.046875 0 -1.75 0.828125q-0.703125 0.828125 -0.703125 2.484375z" fill-rule="nonzero"/><path fill="#000000" fill-opacity="0.0" d="m245.09448 170.95932l-82.45668 69.03937" fill-rule="evenodd"/><path stroke="#38761d" stroke-width="1.0" stroke-linejoin="round" stroke-linecap="butt" d="m245.09448 170.95932l-82.45668 69.03937" fill-rule="evenodd"/><path fill="#000000" fill-opacity="0.0" d="m447.30243 74.24748l0 0c0 -1.7333755 1.4051819 -3.1385574 3.1385498 -3.1385574l62.132324 0c0.83239746 0 1.6307373 0.3306656 2.2192993 0.91926575c0.58862305 0.5885925 0.9192505 1.3868942 0.9192505 2.2192917l0 24.179573c0 1.7333755 -1.4051514 3.138565 -3.1385498 3.138565l-62.132324 0c-1.7333679 0 -3.1385498 -1.4051895 -3.1385498 -3.138565z" fill-rule="evenodd"/><path stroke="#38761d" stroke-width="1.0" stroke-linejoin="round" stroke-linecap="butt" d="m447.30243 74.24748l0 0c0 -1.7333755 1.4051819 -3.1385574 3.1385498 -3.1385574l62.132324 0c0.83239746 0 1.6307373 0.3306656 2.2192993 0.91926575c0.58862305 0.5885925 0.9192505 1.3868942 0.9192505 2.2192917l0 24.179573c0 1.7333755 -1.4051514 3.138565 -3.1385498 3.138565l-62.132324 0c-1.7333679 0 -3.1385498 -1.4051895 -3.1385498 -3.138565z" fill-rule="evenodd"/><path fill="#38761d" d="m474.48486 93.81727l-2.921875 0l0 -11.03125q-1.609375 1.5 -3.78125 2.21875l0 -2.65625q1.140625 -0.375 2.484375 -1.421875q1.34375 -1.046875 1.84375 -2.4375l2.375 0l0 15.328125zm3.9710693 -3.15625l2.9375 -0.453125q0.1875 0.859375 0.75 1.3125q0.578125 0.4375 1.609375 0.4375q1.140625 0 1.71875 -0.421875q0.375 -0.296875 0.375 -0.78125q0 -0.328125 -0.203125 -0.546875q-0.21875 -0.21875 -0.984375 -0.390625q-3.53125 -0.78125 -4.484375 -1.421875q-1.3125 -0.90625 -1.3125 -2.5q0 -1.4375 1.125 -2.40625q1.140625 -0.984375 3.53125 -0.984375q2.265625 0 3.375 0.75q1.109375 0.734375 1.515625 2.171875l-2.75 0.515625q-0.1875 -0.640625 -0.6875 -0.984375q-0.484375 -0.34375 -1.40625 -0.34375q-1.15625 0 -1.65625 0.3125q-0.328125 0.234375 -0.328125 0.59375q0 0.3125 0.296875 0.53125q0.390625 0.296875 2.71875 0.828125q2.34375 0.53125 3.28125 1.296875q0.90625 0.78125 0.90625 2.1875q0 1.515625 -1.265625 2.609375q-1.265625 1.09375 -3.765625 1.09375q-2.25 0 -3.578125 -0.90625q-1.3125 -0.921875 -1.71875 -2.5zm17.97107 -7.90625l0 2.328125l-2.0 0l0 4.46875q0 1.34375 0.046875 1.578125q0.0625 0.21875 0.265625 0.375q0.203125 0.140625 0.5 0.140625q0.40625 0 1.171875 -0.28125l0.25 2.265625q-1.015625 0.4375 -2.3125 0.4375q-0.796875 0 -1.4375 -0.265625q-0.625 -0.265625 -0.921875 -0.6875q-0.296875 -0.421875 -0.40625 -1.140625q-0.09375 -0.515625 -0.09375 -2.0625l0 -4.828125l-1.34375 0l0 -2.328125l1.34375 0l0 -2.1875l2.9375 -1.71875l0 3.90625l2.0 0z" fill-rule="nonzero"/><path fill="#000000" fill-opacity="0.0" d="m359.74014 170.95932l87.55908 -84.62992" fill-rule="evenodd"/><path stroke="#38761d" stroke-width="1.0" stroke-linejoin="round" stroke-linecap="butt" d="m359.74014 170.95932l83.2449 -80.46006" fill-rule="evenodd"/><path fill="#38761d" stroke="#38761d" stroke-width="1.0" stroke-linecap="butt" d="m444.13293 91.68691l2.1151123 -4.34153l-4.4109497 1.9662323z" fill-rule="evenodd"/><path fill="#000000" fill-opacity="0.0" d="m515.71185 86.33727l156.44098 -39.275593" fill-rule="evenodd"/><path stroke="#38761d" stroke-width="1.0" stroke-linejoin="round" stroke-linecap="butt" d="m515.71185 86.33727l150.62158 -37.81459" fill-rule="evenodd"/><path fill="#38761d" stroke="#38761d" stroke-width="1.0" stroke-linecap="butt" d="m666.7356 50.1247l3.9993286 -2.7070465l-4.803711 -0.4969864z" fill-rule="evenodd"/><path fill="#ffffff" d="m11.590551 217.73209l0 0c0 -6.14917 4.9848976 -11.134079 11.134081 -11.134079l128.78696 0c2.952942 0 5.7849426 1.1730499 7.872986 3.2611084c2.0880432 2.0880432 3.2611084 4.9200287 3.2611084 7.8729706l0 44.535004c0 6.14917 -4.984909 11.134064 -11.134094 11.134064l-128.78696 0c-6.1491833 0 -11.134081 -4.984894 -11.134081 -11.134064z" fill-rule="evenodd"/><path stroke="#999999" stroke-width="2.0" stroke-linejoin="round" stroke-linecap="butt" d="m11.590551 217.73209l0 0c0 -6.14917 4.9848976 -11.134079 11.134081 -11.134079l128.78696 0c2.952942 0 5.7849426 1.1730499 7.872986 3.2611084c2.0880432 2.0880432 3.2611084 4.9200287 3.2611084 7.8729706l0 44.535004c0 6.14917 -4.984909 11.134064 -11.134094 11.134064l-128.78696 0c-6.1491833 0 -11.134081 -4.984894 -11.134081 -11.134064z" fill-rule="evenodd"/><path fill="#595959" d="m28.532425 241.4302q-0.953125 0 -1.609375 -0.65625q-0.65625 -0.65625 -0.65625 -1.609375q0 -0.953125 0.65625 -1.625q0.65625 -0.671875 1.609375 -0.671875q0.953125 0 1.625 0.671875q0.671875 0.671875 0.671875 1.625q0 0.953125 -0.671875 1.609375q-0.671875 0.65625 -1.625 0.65625zm-1.203125 5.765625q-0.9375 0 -1.609375 -0.65625q-0.65625 -0.671875 -0.65625 -1.609375q0 -0.953125 0.65625 -1.625q0.671875 -0.671875 1.609375 -0.671875q0.953125 0 1.625 0.671875q0.671875 0.671875 0.671875 1.625q0 0.9375 -0.671875 1.609375q-0.671875 0.65625 -1.625 0.65625zm5.6110992 -11.40625l4.234375 0l-0.1875 0.828125q0 0 0.71875 -0.40625q0.71875 -0.421875 1.59375 -0.421875q0.9375 0 1.484375 0.65625q0.546875 0.640625 0.546875 1.515625q0 0.84375 -0.5625 1.484375q-0.5625 0.640625 -1.546875 0.640625q-0.71875 0 -0.984375 -0.359375q-0.265625 -0.359375 -0.359375 -0.921875q-0.078125 -0.265625 -0.0625 -0.3125q0.015625 -0.0625 0.015625 0.015625q-0.40625 0 -0.703125 0.171875q-0.28125 0.15625 -0.703125 0.5625l-1.96875 9.296875l-4.21875 0l2.703125 -12.75zm11.883347 12.890625q-1.921875 0 -3.03125 -1.03125q-1.09375 -1.03125 -1.09375 -3.15625q0 -1.71875 0.671875 -3.78125q0.671875 -2.0625 2.21875 -3.59375q1.546875 -1.546875 3.96875 -1.546875q3.015625 0 3.015625 2.6875q0 1.453125 -0.828125 2.671875q-0.828125 1.203125 -2.171875 1.9375q-1.34375 0.734375 -2.546875 0.8125q-0.03125 0.375 -0.03125 0.59375q0 1.015625 0.296875 1.328125q0.3125 0.3125 1.0625 0.3125q1.1875 0 2.03125 -0.546875q0.859375 -0.5625 2.046875 -1.875l1.640625 0q-3.09375 5.1875 -7.25 5.1875zm0.5 -6.921875q0.3125 -0.015625 1.03125 -0.53125q0.71875 -0.515625 1.15625 -1.3125q0.453125 -0.8125 0.453125 -1.703125q0 -0.609375 -0.21875 -0.609375q-0.640625 0 -1.40625 1.390625q-0.75 1.375 -1.015625 2.765625zm3.872223 12.78125q-1.265625 0 -2.234375 -0.84375q-0.96875 -0.828125 -0.96875 -2.125q0 -1.15625 0.59375 -1.921875q0.59375 -0.75 1.484375 -1.171875q0.890625 -0.421875 2.09375 -0.796875l2.859375 -13.484375q0.5 -2.453125 1.8125 -3.40625q1.328125 -0.96875 2.921875 -0.96875q1.265625 0 2.234375 0.828125q0.96875 0.828125 0.96875 2.125q0 0.59375 -0.109375 1.359375l-1.859375 0q0.078125 -0.90625 0.078125 -1.015625q0 -0.203125 -0.140625 -0.3125q-0.140625 -0.125 -0.40625 -0.125q-0.359375 0 -0.734375 0.359375q-0.375 0.34375 -0.578125 1.3125l-0.296875 1.4375l1.734375 0l-0.3125 1.703125l-1.796875 0l-2.6875 12.671875q-0.5 2.46875 -1.796875 3.421875q-1.28125 0.953125 -2.859375 0.953125zm-0.5625 -2.890625q0.671875 0 1.015625 -1.578125l0.15625 -0.734375q-0.5625 0.1875 -1.15625 0.671875q-0.59375 0.484375 -0.59375 1.234375q0 0.109375 0.171875 0.25q0.171875 0.15625 0.40625 0.15625zm13.314224 -2.96875q-1.921875 0 -3.03125 -1.03125q-1.09375 -1.03125 -1.09375 -3.15625q0 -1.71875 0.671875 -3.78125q0.671875 -2.0625 2.21875 -3.59375q1.546875 -1.546875 3.96875 -1.546875q3.015625 0 3.015625 2.6875q0 1.453125 -0.828125 2.671875q-0.828125 1.203125 -2.171875 1.9375q-1.34375 0.734375 -2.546875 0.8125q-0.03125 0.375 -0.03125 0.59375q0 1.015625 0.296875 1.328125q0.3125 0.3125 1.0625 0.3125q1.1875 0 2.03125 -0.546875q0.859375 -0.5625 2.046875 -1.875l1.640625 0q-3.09375 5.1875 -7.25 5.1875zm0.5 -6.921875q0.3125 -0.015625 1.03125 -0.53125q0.71875 -0.515625 1.15625 -1.3125q0.453125 -0.8125 0.453125 -1.703125q0 -0.609375 -0.21875 -0.609375q-0.640625 0 -1.40625 1.390625q-0.75 1.375 -1.015625 2.765625zm7.356598 -5.96875l4.234375 0l-0.1875 0.828125q0 0 0.71875 -0.40625q0.71875 -0.421875 1.59375 -0.421875q0.9375 0 1.484375 0.65625q0.546875 0.640625 0.546875 1.515625q0 0.84375 -0.5625 1.484375q-0.5625 0.640625 -1.546875 0.640625q-0.71875 0 -0.984375 -0.359375q-0.265625 -0.359375 -0.359375 -0.921875q-0.078125 -0.265625 -0.0625 -0.3125q0.015625 -0.0625 0.015625 0.015625q-0.40625 0 -0.703125 0.171875q-0.28125 0.15625 -0.703125 0.5625l-1.96875 9.296875l-4.21875 0l2.703125 -12.75zm9.039597 4.78125l5.5625076 0l-0.578125 2.640625l-5.5937576 0l0.609375 -2.640625zm8.647484 -5.671875l4.21875 0l-0.25 1.15625q0.453125 -0.390625 2.203125 -0.390625q1.515625 0 2.40625 1.015625q0.890625 1.0 0.890625 3.15625q0 1.9375 -0.578125 3.953125q-0.5625 2.0 -1.96875 3.453125q-1.40625 1.4375 -3.71875 1.4375q-1.765625 0 -1.875 -0.203125l-1.109375 5.140625l-4.421875 1.046875l4.203125 -19.765625zm2.453125 10.953125q0.953125 0 1.625 -0.96875q0.6875 -0.984375 1.015625 -2.421875q0.34375 -1.453125 0.34375 -2.703125q0 -1.609375 -0.828125 -1.609375q-0.296875 0 -0.671875 0.265625q-0.359375 0.25 -0.625 0.671875l-1.375 6.5625q0.0625 0.203125 0.515625 0.203125zm11.435089 2.828125q-1.921875 0 -3.03125 -1.03125q-1.09375 -1.03125 -1.09375 -3.15625q0 -1.71875 0.671875 -3.78125q0.671875 -2.0625 2.21875 -3.59375q1.546875 -1.546875 3.96875 -1.546875q3.015625 0 3.015625 2.6875q0 1.453125 -0.828125 2.671875q-0.828125 1.203125 -2.171875 1.9375q-1.34375 0.734375 -2.546875 0.8125q-0.03125 0.375 -0.03125 0.59375q0 1.015625 0.296875 1.328125q0.3125 0.3125 1.0625 0.3125q1.1875 0 2.03125 -0.546875q0.859375 -0.5625 2.046875 -1.875l1.640625 0q-3.09375 5.1875 -7.25 5.1875zm0.5 -6.921875q0.3125 -0.015625 1.03125 -0.53125q0.71875 -0.515625 1.15625 -1.3125q0.453125 -0.8125 0.453125 -1.703125q0 -0.609375 -0.21875 -0.609375q-0.640625 0 -1.40625 1.390625q-0.75 1.375 -1.015625 2.765625zm7.356598 -5.96875l4.234375 0l-0.1875 0.828125q0 0 0.71875 -0.40625q0.71875 -0.421875 1.59375 -0.421875q0.9375 0 1.484375 0.65625q0.546875 0.640625 0.546875 1.515625q0 0.84375 -0.5625 1.484375q-0.5625 0.640625 -1.546875 0.640625q-0.71875 0 -0.984375 -0.359375q-0.265625 -0.359375 -0.359375 -0.921875q-0.078125 -0.265625 -0.0625 -0.3125q0.015625 -0.0625 0.015625 0.015625q-0.40625 0 -0.703125 0.171875q-0.28125 0.15625 -0.703125 0.5625l-1.96875 9.296875l-4.21875 0l2.703125 -12.75zm11.180222 12.890625q-1.25 0 -2.140625 -0.484375q-0.875 -0.5 -1.296875 -1.296875q-0.4375 -0.796875 -0.4375 -1.65625q0 -0.90625 0.421875 -1.578125q0.421875 -0.671875 0.953125 -0.9375q0.859375 -1.5625 1.546875 -3.25q0.6875 -1.703125 1.390625 -3.921875l4.203125 -0.5625q0.125 3.484375 0.421875 7.046875q0.109375 1.453125 0.109375 2.109375q0 0.609375 -0.21875 0.59375q0.65625 -0.625 1.34375 -1.25l1.9531174 0q-2.1093674 2.453125 -4.2499924 3.671875q-0.703125 0.78125 -1.8125 1.15625q-1.09375 0.359375 -2.1875 0.359375zm-0.765625 -2.640625q0.75 0 1.234375 -0.421875q0.484375 -0.4375 0.484375 -1.4375q0 -0.703125 -0.15625 -1.984375q-0.234375 -2.734375 -0.03125 -2.75q-0.125 1.078125 -1.34375 3.421875q0.421875 0.234375 0.421875 1.0q0 0.59375 -0.40625 1.078125q-0.390625 0.46875 -1.015625 0.46875q-0.765625 0 -0.578125 -0.34375q0.296875 0.390625 0.546875 0.6875q0.25 0.28125 0.84375 0.28125zm11.449211 2.59375q-1.90625 0 -3.0625 -1.015625q-1.1562424 -1.015625 -1.1562424 -3.15625q0 -1.6875 0.703125 -3.75q0.7031174 -2.0625 2.2656174 -3.59375q1.578125 -1.546875 3.984375 -1.546875q3.453125 0 3.453125 4.21875l-0.359375 0q0.140625 -0.328125 0.25 -0.328125q0.71875 0 1.6875 -0.390625q0.984375 -0.40625 2.1875 -1.265625l0.453125 1.328125q-0.890625 0.96875 -2.0625 1.515625q-1.171875 0.53125 -2.265625 0.71875q-0.15625 1.953125 -0.984375 3.65625q-0.828125 1.703125 -2.171875 2.65625q-1.328125 0.953125 -2.921875 0.953125zm0.96875 -2.90625q0.40625 0 0.890625 -0.578125q0.5 -0.578125 0.921875 -1.65625q0.421875 -1.078125 0.546875 -2.09375q-0.609375 -0.140625 -0.609375 -1.296875q0 -1.234375 0.734375 -1.546875q-0.03125 -0.421875 -0.140625 -0.59375q-0.109375 -0.171875 -0.375 -0.171875q-0.59375 0 -1.265625 1.046875q-0.671875 1.03125 -1.125 2.59375q-0.4375 1.546875 -0.4375 2.71875q0 1.046875 0.171875 1.3125q0.1875 0.265625 0.6875 0.265625zm15.067215 2.953125q-1.453125 0 -2.125 -0.890625q-0.671875 -0.890625 -0.671875 -2.1875q0 -0.546875 0.125 -1.203125q0.140625 -0.65625 0.265625 -1.265625q0.140625 -0.609375 0.1875 -0.78125q0.1875 -0.8125 0.34375 -1.609375q0.15625 -0.796875 0.15625 -1.265625q0 -0.84375 -0.484375 -0.84375q-0.4375 0 -0.84375 0.515625q-0.390625 0.5 -0.671875 1.40625l-1.6875 7.984375l-4.21875 0l2.703125 -12.75l4.234375 0l-0.140625 0.4375q0.4375 -0.53125 2.203125 -0.53125q1.375 0 2.203125 0.78125q0.84375 0.78125 0.84375 2.296875q0 0.734375 -0.1875 1.609375q-0.171875 0.875 -0.484375 2.109375q-0.1875 0.734375 -0.34375 1.4375q-0.140625 0.6875 -0.140625 1.046875q0 0.328125 0.109375 0.484375q0.125 0.140625 0.484375 0.140625q0.46875 0 1.25 -0.546875q-0.25 2.1875 -1.09375 2.90625q-0.84375 0.71875 -2.015625 0.71875z" fill-rule="nonzero"/><path fill="#000000" fill-opacity="0.0" d="m672.16534 108.30568l0 0c0 -4.6097107 3.7369385 -8.346626 8.346619 -8.346626l146.99182 0c2.213623 0 4.33667 0.8793793 5.9019165 2.4446716c1.5653076 1.5653 2.4447021 3.6882935 2.4447021 5.9019547l0 33.385498c0 4.6097107 -3.7369385 8.346619 -8.346619 8.346619l-146.99182 0c-4.60968 0 -8.346619 -3.736908 -8.346619 -8.346619z" fill-rule="evenodd"/><path stroke="#38761d" stroke-width="1.0" stroke-linejoin="round" stroke-linecap="butt" d="m672.16534 108.30568l0 0c0 -4.6097107 3.7369385 -8.346626 8.346619 -8.346626l146.99182 0c2.213623 0 4.33667 0.8793793 5.9019165 2.4446716c1.5653076 1.5653 2.4447021 3.6882935 2.4447021 5.9019547l0 33.385498c0 4.6097107 -3.7369385 8.346619 -8.346619 8.346619l-146.99182 0c-4.60968 0 -8.346619 -3.736908 -8.346619 -8.346619z" fill-rule="evenodd"/><path fill="#38761d" d="m692.0006 132.47842l-2.921875 0l0 -11.03125q-1.609375 1.5 -3.78125 2.21875l0 -2.65625q1.140625 -0.375 2.484375 -1.421875q1.34375 -1.046875 1.84375 -2.4375l2.375 0l0 15.328125zm3.9710693 -3.15625l2.9375 -0.453125q0.1875 0.859375 0.75 1.3125q0.578125 0.4375 1.609375 0.4375q1.140625 0 1.71875 -0.421875q0.375 -0.296875 0.375 -0.78125q0 -0.328125 -0.203125 -0.546875q-0.21875 -0.21875 -0.984375 -0.390625q-3.53125 -0.78125 -4.484375 -1.421875q-1.3125 -0.90625 -1.3125 -2.5q0 -1.4375 1.125 -2.40625q1.140625 -0.984375 3.53125 -0.984375q2.265625 0 3.375 0.75q1.109375 0.734375 1.515625 2.171875l-2.75 0.515625q-0.1875 -0.640625 -0.6875 -0.984375q-0.484375 -0.34375 -1.40625 -0.34375q-1.15625 0 -1.65625 0.3125q-0.328125 0.234375 -0.328125 0.59375q0 0.3125 0.296875 0.53125q0.390625 0.296875 2.71875 0.828125q2.34375 0.53125 3.28125 1.296875q0.90625 0.78125 0.90625 2.1875q0 1.515625 -1.265625 2.609375q-1.265625 1.09375 -3.765625 1.09375q-2.25 0 -3.578125 -0.90625q-1.3125 -0.921875 -1.71875 -2.5zm17.97107 -7.90625l0 2.328125l-2.0 0l0 4.46875q0 1.34375 0.046875 1.578125q0.0625 0.21875 0.265625 0.375q0.203125 0.140625 0.5 0.140625q0.40625 0 1.171875 -0.28125l0.25 2.265625q-1.015625 0.4375 -2.3125 0.4375q-0.796875 0 -1.4375 -0.265625q-0.625 -0.265625 -0.921875 -0.6875q-0.296875 -0.421875 -0.40625 -1.140625q-0.09375 -0.515625 -0.09375 -2.0625l0 -4.828125l-1.34375 0l0 -2.328125l1.34375 0l0 -2.1875l2.9375 -1.71875l0 3.90625l2.0 0zm1.680542 6.984375l0 -2.921875l5.75 0l0 2.921875l-5.75 0zm13.852478 0.5625l2.90625 0.484375q-0.546875 1.609375 -1.765625 2.453125q-1.21875 0.828125 -3.03125 0.828125q-2.890625 0 -4.28125 -1.890625q-1.09375 -1.5 -1.09375 -3.8125q0 -2.75 1.4375 -4.296875q1.4375 -1.5625 3.640625 -1.5625q2.46875 0 3.890625 1.640625q1.421875 1.625 1.359375 4.984375l-7.328125 0q0.03125 1.296875 0.703125 2.03125q0.6875 0.71875 1.703125 0.71875q0.6875 0 1.15625 -0.375q0.46875 -0.375 0.703125 -1.203125zm0.171875 -2.96875q-0.03125 -1.265625 -0.65625 -1.921875q-0.625 -0.671875 -1.53125 -0.671875q-0.953125 0 -1.578125 0.703125q-0.625 0.703125 -0.609375 1.890625l4.375 0zm3.8773193 6.484375l3.984375 -5.703125l-3.8125 -5.359375l3.5625 0l1.96875 3.046875l2.0625 -3.046875l3.421875 0l-3.734375 5.234375l4.078125 5.828125l-3.578125 0l-2.25 -3.421875l-2.28125 3.421875l-3.421875 0zm22.90857 -7.796875l-2.875 0.53125q-0.15625 -0.875 -0.671875 -1.3125q-0.515625 -0.4375 -1.328125 -0.4375q-1.09375 0 -1.75 0.765625q-0.65625 0.75 -0.65625 2.515625q0 1.96875 0.65625 2.78125q0.671875 0.8125 1.78125 0.8125q0.84375 0 1.375 -0.46875q0.53125 -0.46875 0.75 -1.625l2.859375 0.484375q-0.4375 1.984375 -1.71875 3.0q-1.265625 1.0 -3.390625 1.0q-2.4375 0 -3.875 -1.53125q-1.4375 -1.53125 -1.4375 -4.234375q0 -2.75 1.4375 -4.265625q1.453125 -1.53125 3.921875 -1.53125q2.015625 0 3.203125 0.875q1.203125 0.859375 1.71875 2.640625zm2.2210693 7.796875l0 -15.265625l2.921875 0l0 15.265625l-2.921875 0zm13.206848 0l0 -1.65625q-0.609375 0.890625 -1.59375 1.40625q-0.984375 0.5 -2.078125 0.5q-1.109375 0 -2.0 -0.484375q-0.875 -0.5 -1.28125 -1.375q-0.390625 -0.890625 -0.390625 -2.453125l0 -7.0l2.921875 0l0 5.078125q0 2.34375 0.15625 2.875q0.171875 0.515625 0.59375 0.828125q0.4375 0.296875 1.09375 0.296875q0.75 0 1.34375 -0.40625q0.59375 -0.40625 0.8125 -1.015625q0.21875 -0.609375 0.21875 -2.984375l0 -4.671875l2.921875 0l0 11.0625l-2.71875 0zm4.715576 -3.15625l2.9375 -0.453125q0.1875 0.859375 0.75 1.3125q0.578125 0.4375 1.609375 0.4375q1.140625 0 1.71875 -0.421875q0.375 -0.296875 0.375 -0.78125q0 -0.328125 -0.203125 -0.546875q-0.21875 -0.21875 -0.984375 -0.390625q-3.53125 -0.78125 -4.484375 -1.421875q-1.3125 -0.90625 -1.3125 -2.5q0 -1.4375 1.125 -2.40625q1.140625 -0.984375 3.53125 -0.984375q2.265625 0 3.375 0.75q1.109375 0.734375 1.515625 2.171875l-2.75 0.515625q-0.1875 -0.640625 -0.6875 -0.984375q-0.484375 -0.34375 -1.40625 -0.34375q-1.15625 0 -1.65625 0.3125q-0.328125 0.234375 -0.328125 0.59375q0 0.3125 0.296875 0.53125q0.390625 0.296875 2.71875 0.828125q2.34375 0.53125 3.28125 1.296875q0.90625 0.78125 0.90625 2.1875q0 1.515625 -1.265625 2.609375q-1.265625 1.09375 -3.765625 1.09375q-2.25 0 -3.578125 -0.90625q-1.3125 -0.921875 -1.71875 -2.5zm12.892944 -9.40625l0 -2.703125l2.921875 0l0 2.703125l-2.921875 0zm0 12.5625l0 -11.0625l2.921875 0l0 11.0625l-2.921875 0zm8.972534 0l-4.46875 -11.0625l3.078125 0l2.078125 5.640625l0.609375 1.890625q0.234375 -0.71875 0.296875 -0.953125q0.15625 -0.46875 0.3125 -0.9375l2.109375 -5.640625l3.0 0l-4.390625 11.0625l-2.625 0zm15.221069 -3.515625l2.90625 0.484375q-0.546875 1.609375 -1.765625 2.453125q-1.21875 0.828125 -3.03125 0.828125q-2.890625 0 -4.28125 -1.890625q-1.09375 -1.5 -1.09375 -3.8125q0 -2.75 1.4375 -4.296875q1.4375 -1.5625 3.640625 -1.5625q2.46875 0 3.890625 1.640625q1.421875 1.625 1.359375 4.984375l-7.328125 0q0.03125 1.296875 0.703125 2.03125q0.6875 0.71875 1.703125 0.71875q0.6875 0 1.15625 -0.375q0.46875 -0.375 0.703125 -1.203125zm0.171875 -2.96875q-0.03125 -1.265625 -0.65625 -1.921875q-0.625 -0.671875 -1.53125 -0.671875q-0.953125 0 -1.578125 0.703125q-0.625 0.703125 -0.609375 1.890625l4.375 0z" fill-rule="nonzero"/><path fill="#000000" fill-opacity="0.0" d="m515.71185 86.33727l156.44098 38.645668" fill-rule="evenodd"/><path stroke="#38761d" stroke-width="1.0" stroke-linejoin="round" stroke-linecap="butt" d="m515.71185 86.33727l150.61609 37.20674" fill-rule="evenodd"/><path fill="#38761d" stroke="#38761d" stroke-width="1.0" stroke-linecap="butt" d="m665.93176 125.147545l4.801819 -0.51519775l-4.0095825 -2.691864z" fill-rule="evenodd"/><path fill="#000000" fill-opacity="0.0" d="m359.74014 170.95932l87.55908 70.708664" fill-rule="evenodd"/><path stroke="#783f04" stroke-width="1.0" stroke-linejoin="round" stroke-linecap="butt" d="m359.74014 170.95932l82.89108 66.93904" fill-rule="evenodd"/><path fill="#783f04" stroke="#783f04" stroke-width="1.0" stroke-linecap="butt" d="m441.5935 239.18338l4.5683594 1.5661316l-2.4928894 -4.1362z" fill-rule="evenodd"/></g></svg>